<svg id="svg" version="1.1" xmlns="http://www.w3.org/2000/svg" xmlns:xlink="http://www.w3.org/1999/xlink" width="400" height="399" viewBox="0, 0, 400,399"><g id="svgg"><path id="path0" d="M193.333 50.886 C 103.149 54.681,37.232 136.041,52.199 225.086 C 65.611 304.874,142.402 359.595,223.000 346.796 C 306.642 333.515,362.458 253.247,345.823 170.167 C 331.529 98.780,266.371 47.813,193.333 50.886 M130.768 125.538 C 136.482 126.818,141.443 130.252,145.161 135.500 C 146.396 137.244,157.037 155.504,172.161 181.833 C 186.651 207.059,189.474 210.558,199.167 215.310 C 233.165 231.978,268.709 197.396,253.387 162.558 C 247.880 150.035,249.540 139.478,258.244 131.673 C 278.353 113.644,308.856 136.101,297.383 160.488 C 295.826 163.798,221.375 292.687,219.925 294.582 C 209.619 308.057,188.980 307.929,179.774 294.333 C 178.511 292.469,165.613 270.261,144.928 234.333 C 136.220 219.208,123.434 197.014,116.515 185.012 C 102.372 160.477,101.858 159.522,101.012 156.212 C 96.332 137.905,112.336 121.407,130.768 125.538 " stroke="none" fill="#fbfbfb" fill-rule="evenodd"></path><path id="path1" d="M146.833 0.879 C 79.116 2.536,49.352 11.579,27.399 37.167 C 10.467 56.901,3.683 81.108,0.960 131.500 C -0.120 151.484,0.280 257.075,1.510 276.924 C 4.335 322.495,12.599 347.188,31.420 366.305 C 50.709 385.897,76.554 394.587,123.667 397.324 C 153.232 399.041,250.793 398.928,278.833 397.144 C 324.882 394.214,350.039 385.433,369.167 365.614 C 388.829 345.241,396.462 319.899,399.070 266.333 C 399.681 253.789,399.681 145.211,399.070 132.667 C 396.459 79.037,388.852 53.779,369.172 33.393 C 348.729 12.217,322.986 4.062,267.833 1.292 C 261.236 0.961,157.903 0.608,146.833 0.879 M216.000 51.480 C 240.975 54.502,262.445 62.405,283.333 76.264 C 285.442 77.663,287.336 78.963,287.542 79.154 C 287.749 79.344,288.251 79.725,288.657 80.000 C 289.063 80.275,289.704 80.762,290.082 81.083 C 290.460 81.404,290.858 81.667,290.968 81.667 C 291.077 81.667,291.767 82.179,292.500 82.804 C 293.233 83.429,294.264 84.291,294.789 84.720 C 295.860 85.594,297.309 86.840,299.612 88.870 C 300.977 90.072,306.915 95.942,311.209 100.333 C 312.016 101.158,312.674 101.962,312.671 102.119 C 312.669 102.276,313.042 102.699,313.500 103.060 C 313.958 103.420,314.333 103.870,314.333 104.060 C 314.333 104.249,314.708 104.699,315.167 105.060 C 315.625 105.420,316.000 105.893,316.000 106.111 C 316.000 106.328,316.300 106.694,316.667 106.923 C 317.033 107.152,317.333 107.527,317.333 107.756 C 317.333 107.985,317.648 108.369,318.032 108.610 C 318.417 108.850,318.663 109.115,318.579 109.199 C 318.495 109.283,318.925 109.896,319.534 110.561 C 320.144 111.226,320.573 111.881,320.490 112.017 C 320.406 112.152,320.561 112.349,320.835 112.455 C 321.109 112.560,321.333 112.875,321.333 113.156 C 321.333 113.437,321.462 113.667,321.619 113.667 C 321.956 113.667,324.333 117.166,324.333 117.662 C 324.333 117.848,324.451 118.000,324.595 118.000 C 324.915 118.000,326.183 120.069,326.076 120.417 C 326.034 120.554,326.150 120.667,326.333 120.667 C 326.517 120.667,326.667 120.815,326.667 120.996 C 326.667 121.177,326.929 121.632,327.250 122.007 C 327.571 122.382,327.793 122.761,327.743 122.851 C 327.693 122.940,327.951 123.333,328.315 123.724 C 328.679 124.114,328.898 124.562,328.802 124.717 C 328.706 124.873,328.762 125.000,328.927 125.000 C 329.248 125.000,330.155 126.669,330.058 127.083 C 330.026 127.221,330.159 127.333,330.353 127.333 C 330.547 127.333,330.613 127.483,330.500 127.667 C 330.387 127.850,330.449 128.000,330.638 128.000 C 330.828 128.000,331.216 128.450,331.500 129.000 C 331.784 129.550,331.938 130.000,331.842 130.000 C 331.746 130.000,331.978 130.312,332.359 130.692 C 332.740 131.073,332.967 131.606,332.863 131.876 C 332.742 132.192,332.813 132.283,333.060 132.129 C 333.321 131.968,333.375 132.077,333.227 132.463 C 333.106 132.777,333.143 132.951,333.308 132.849 C 333.473 132.747,333.968 133.302,334.409 134.082 C 335.673 136.320,354.351 168.718,355.033 169.856 L 355.646 170.878 351.332 173.334 C 347.666 175.421,347.042 175.893,347.175 176.478 C 350.335 190.333,349.207 216.817,344.675 235.169 C 319.156 338.519,195.297 383.009,110.230 319.382 C 107.445 317.299,105.016 315.534,104.832 315.460 C 104.648 315.386,102.811 316.302,100.750 317.496 C 98.689 318.690,96.889 319.663,96.751 319.657 C 96.384 319.644,77.492 286.983,77.546 286.455 C 77.571 286.209,77.474 286.080,77.331 286.168 C 77.066 286.332,76.517 285.374,76.614 284.917 C 76.643 284.779,76.517 284.667,76.333 284.667 C 76.150 284.667,76.000 284.511,76.000 284.321 C 76.000 284.130,75.107 282.647,74.016 281.024 C 30.965 216.997,46.861 127.621,109.693 80.436 C 139.710 57.894,179.483 47.061,216.000 51.480 M215.333 251.554 C 191.042 265.569,170.911 277.141,170.598 277.270 C 170.010 277.512,177.442 290.834,180.454 294.937 C 189.677 307.502,209.570 307.583,219.291 295.095 C 220.276 293.830,227.522 281.628,235.394 267.981 C 243.265 254.333,251.933 239.304,254.656 234.583 C 257.378 229.862,259.582 226.016,259.553 226.036 C 259.524 226.056,239.625 237.539,215.333 251.554 " stroke="none" fill="#e63333" fill-rule="evenodd"></path><path id="path2" d="M298.333 87.771 C 298.333 87.828,298.821 88.316,299.417 88.854 L 300.500 89.833 299.521 88.750 C 298.608 87.740,298.333 87.513,298.333 87.771 M305.333 94.500 C 307.436 96.608,309.231 98.333,309.322 98.333 C 309.414 98.333,307.769 96.608,305.667 94.500 C 303.564 92.392,301.769 90.667,301.678 90.667 C 301.586 90.667,303.231 92.392,305.333 94.500 M311.333 100.833 C 311.955 101.475,312.539 102.000,312.631 102.000 C 312.722 102.000,312.289 101.475,311.667 100.833 C 311.045 100.192,310.461 99.667,310.369 99.667 C 310.278 99.667,310.711 100.192,311.333 100.833 M121.709 125.342 C 108.782 127.126,99.716 138.122,100.428 151.153 C 100.761 157.256,100.842 157.436,111.830 176.500 C 159.251 258.771,169.897 277.132,170.242 277.247 C 170.404 277.301,190.531 265.830,214.969 251.756 L 259.401 226.167 274.225 200.500 C 300.016 155.843,298.492 158.715,299.334 153.160 C 301.860 136.499,285.812 121.900,269.470 125.994 C 254.155 129.830,246.430 145.290,252.513 159.927 C 255.247 166.503,255.745 167.890,256.362 170.631 C 264.302 205.946,224.546 233.109,194.500 212.897 C 187.364 208.097,185.584 205.568,168.766 176.333 C 144.007 133.296,144.213 133.629,140.362 130.440 C 135.419 126.347,128.376 124.422,121.709 125.342 M331.167 129.000 C 331.451 129.550,331.759 130.000,331.850 130.000 C 331.942 130.000,331.784 129.550,331.500 129.000 C 331.216 128.450,330.908 128.000,330.816 128.000 C 330.725 128.000,330.882 128.450,331.167 129.000 M334.303 135.083 C 340.052 147.172,344.512 160.741,346.521 172.258 C 346.850 174.142,347.215 175.642,347.333 175.591 C 347.450 175.541,349.370 174.461,351.598 173.192 L 355.649 170.884 355.035 169.859 C 354.353 168.722,336.068 137.008,333.735 132.917 C 332.925 131.496,332.213 130.333,332.153 130.333 C 332.093 130.333,333.060 132.471,334.303 135.083 M78.800 289.167 C 80.186 291.550,84.736 299.384,88.910 306.575 C 93.085 313.766,96.611 319.654,96.746 319.658 C 96.882 319.663,98.706 318.678,100.800 317.470 L 104.607 315.272 101.220 312.333 C 93.901 305.980,85.657 297.142,79.925 289.500 C 75.923 284.165,75.884 284.154,78.800 289.167 " stroke="none" fill="#cb2c2c" fill-rule="evenodd"></path><path id="path3" d="M93.327 94.583 L 90.167 97.833 93.417 94.673 C 96.435 91.738,96.818 91.333,96.577 91.333 C 96.527 91.333,95.065 92.796,93.327 94.583 M257.146 132.750 L 256.167 133.833 257.250 132.854 C 257.846 132.316,258.333 131.828,258.333 131.771 C 258.333 131.513,258.058 131.740,257.146 132.750 M348.744 193.667 C 348.744 194.308,348.813 194.571,348.896 194.250 C 348.980 193.929,348.980 193.404,348.896 193.083 C 348.813 192.762,348.744 193.025,348.744 193.667 M348.751 205.833 C 348.754 206.567,348.823 206.827,348.902 206.413 C 348.982 205.998,348.979 205.398,348.896 205.079 C 348.812 204.761,348.747 205.100,348.751 205.833 M198.083 348.909 C 198.771 348.981,199.896 348.981,200.583 348.909 C 201.271 348.838,200.708 348.779,199.333 348.779 C 197.958 348.779,197.396 348.838,198.083 348.909 " stroke="none" fill="#e77d7d" fill-rule="evenodd"></path><path id="path4" d="M193.088 50.906 C 193.595 50.982,194.345 50.980,194.755 50.901 C 195.165 50.822,194.750 50.760,193.833 50.762 C 192.917 50.765,192.581 50.829,193.088 50.906 M204.421 50.906 C 204.928 50.982,205.678 50.980,206.088 50.901 C 206.498 50.822,206.083 50.760,205.167 50.762 C 204.250 50.765,203.915 50.829,204.421 50.906 M305.000 94.500 C 306.734 96.242,308.228 97.667,308.320 97.667 C 308.412 97.667,307.068 96.242,305.333 94.500 C 303.599 92.758,302.105 91.333,302.013 91.333 C 301.922 91.333,303.266 92.758,305.000 94.500 M100.103 149.833 C 100.105 150.933,100.167 151.343,100.242 150.744 C 100.316 150.145,100.314 149.245,100.238 148.744 C 100.162 148.243,100.101 148.733,100.103 149.833 M250.100 150.000 C 250.100 151.008,250.162 151.421,250.239 150.917 C 250.315 150.412,250.315 149.587,250.239 149.083 C 250.162 148.579,250.100 148.992,250.100 150.000 M257.084 178.167 C 257.088 178.900,257.156 179.161,257.236 178.746 C 257.315 178.331,257.312 177.731,257.229 177.413 C 257.146 177.094,257.080 177.433,257.084 178.167 M50.077 192.000 C 50.077 192.642,50.146 192.904,50.230 192.583 C 50.314 192.262,50.314 191.737,50.230 191.417 C 50.146 191.096,50.077 191.358,50.077 192.000 M348.801 199.667 C 348.801 202.508,348.852 203.671,348.914 202.250 C 348.977 200.829,348.977 198.504,348.914 197.083 C 348.852 195.662,348.801 196.825,348.801 199.667 M245.487 207.750 L 243.833 209.500 245.583 207.846 C 247.209 206.309,247.486 206.000,247.237 206.000 C 247.185 206.000,246.397 206.787,245.487 207.750 M50.077 207.333 C 50.077 207.975,50.146 208.237,50.230 207.917 C 50.314 207.596,50.314 207.071,50.230 206.750 C 50.146 206.429,50.077 206.692,50.077 207.333 M189.000 208.104 C 189.000 208.162,189.487 208.649,190.083 209.188 L 191.167 210.167 190.188 209.083 C 189.275 208.074,189.000 207.847,189.000 208.104 M215.925 219.578 C 216.709 219.648,217.909 219.647,218.592 219.576 C 219.275 219.504,218.633 219.446,217.167 219.448 C 215.700 219.449,215.141 219.507,215.925 219.578 M182.500 297.667 C 183.216 298.400,183.877 299.000,183.969 299.000 C 184.060 299.000,183.549 298.400,182.833 297.667 C 182.117 296.933,181.456 296.333,181.365 296.333 C 181.273 296.333,181.784 296.933,182.500 297.667 M93.500 305.000 C 95.142 306.650,96.561 308.000,96.653 308.000 C 96.744 308.000,95.476 306.650,93.833 305.000 C 92.191 303.350,90.772 302.000,90.681 302.000 C 90.589 302.000,91.858 303.350,93.500 305.000 M197.750 304.563 C 198.071 304.647,198.596 304.647,198.917 304.563 C 199.237 304.479,198.975 304.411,198.333 304.411 C 197.692 304.411,197.429 304.479,197.750 304.563 M200.750 304.563 C 201.071 304.647,201.596 304.647,201.917 304.563 C 202.237 304.479,201.975 304.411,201.333 304.411 C 200.692 304.411,200.429 304.479,200.750 304.563 M190.750 348.563 C 191.071 348.647,191.596 348.647,191.917 348.563 C 192.237 348.479,191.975 348.411,191.333 348.411 C 190.692 348.411,190.429 348.479,190.750 348.563 M206.750 348.563 C 207.071 348.647,207.596 348.647,207.917 348.563 C 208.237 348.479,207.975 348.411,207.333 348.411 C 206.692 348.411,206.429 348.479,206.750 348.563 " stroke="none" fill="#eb9c9c" fill-rule="evenodd"></path></g></svg>