<?xml version="1.0" standalone="no"?>
<!DOCTYPE svg PUBLIC "-//W3C//DTD SVG 20010904//EN"
 "http://www.w3.org/TR/2001/REC-SVG-20010904/DTD/svg10.dtd">
<svg version="1.0" xmlns="http://www.w3.org/2000/svg"
 width="5120.000000pt" height="5120.000000pt" viewBox="0 0 5120.000000 5120.000000"
 preserveAspectRatio="xMidYMid meet">

<g transform="translate(0.000000,5120.000000) scale(0.100000,-0.100000)"
fill="#000000" stroke="none">
<path d="M25050 51194 c-289 -8 -718 -26 -955 -40 -3725 -214 -7351 -1241
-10628 -3009 -2810 -1516 -5315 -3545 -7388 -5985 -2981 -3510 -4960 -7756
-5719 -12270 -185 -1098 -287 -2096 -342 -3325 -16 -365 -16 -1565 0 -1930 55
-1229 157 -2227 342 -3325 759 -4514 2738 -8760 5719 -12270 1805 -2125 3937
-3938 6321 -5377 3113 -1878 6577 -3062 10200 -3487 1011 -119 1913 -170 3000
-170 801 0 1281 18 2015 74 4837 374 9457 2120 13350 5045 3907 2936 6895
6920 8608 11480 832 2213 1352 4548 1541 6915 61 757 80 1259 80 2080 0 821
-19 1323 -80 2080 -321 4018 -1587 7889 -3702 11325 -1685 2736 -3874 5137
-6447 7070 -3130 2352 -6748 3952 -10567 4674 -1261 239 -2436 372 -3808 431
-235 10 -1322 20 -1540 14z m15592 -12562 c302 -70 554 -208 763 -417 215
-216 357 -482 421 -790 19 -88 19 -336 19 -9815 l0 -9725 -23 -105 c-83 -380
-284 -696 -587 -923 -101 -76 -310 -184 -429 -222 -44 -14 -123 -35 -175 -47
l-96 -23 -5324 -2 c-4237 -3 -5322 -6 -5318 -16 2 -6 56 -132 118 -280 l113
-267 1693 0 1693 0 0 -1730 0 -1730 -7910 0 -7910 0 0 1730 0 1730 1693 0
1693 0 113 267 c62 148 115 274 118 280 4 10 -1081 13 -5318 16 l-5324 2 -96
23 c-153 35 -245 68 -384 137 -416 207 -703 583 -807 1055 l-23 105 0 9725 c0
9479 0 9727 19 9815 94 449 364 824 753 1044 146 83 338 149 508 175 77 12
2310 14 15000 12 l14910 -1 97 -23z"/>
<path d="M10763 37605 c-156 -34 -284 -149 -345 -311 l-23 -59 0 -9620 c0
-9357 1 -9622 19 -9675 51 -153 160 -262 310 -314 l61 -21 6049 -3 c5747 -2
6048 -3 6044 -20 -9 -31 -1100 -2607 -1110 -2620 -8 -9 -324 -12 -1519 -12
l-1509 0 0 -685 0 -685 6860 0 6860 0 0 685 0 685 -1509 0 c-1195 0 -1511 3
-1519 13 -10 12 -1101 2588 -1110 2619 -4 17 297 18 6044 20 l6049 3 64 23
c154 56 256 159 307 312 18 53 19 318 19 9675 l0 9620 -23 59 c-62 164 -189
277 -349 311 -99 21 -29574 21 -29670 0z m28067 -9995 l0 -8030 -13230 0
-13230 0 0 8030 0 8030 13230 0 13230 0 0 -8030z"/>
<path d="M26502 32583 c-34 -120 -169 -603 -301 -1073 -132 -470 -324 -1154
-426 -1520 -266 -949 -538 -1920 -670 -2390 -62 -223 -197 -702 -299 -1065
-101 -363 -268 -957 -370 -1320 -645 -2301 -768 -2741 -773 -2767 l-5 -28 490
0 c270 0 493 4 496 8 5 8 75 258 1291 4607 202 721 546 1954 766 2740 220 787
454 1621 519 1855 66 234 164 587 219 784 56 198 101 366 101 373 0 11 -91 13
-489 13 l-488 0 -61 -217z"/>
<path d="M22390 30730 c-462 -196 -803 -340 -4095 -1730 -940 -397 -1790 -755
-1888 -797 l-177 -75 2 -574 3 -575 125 -53 c341 -146 1484 -635 3675 -1571
666 -284 1568 -670 2005 -857 437 -187 805 -344 818 -349 l22 -9 0 613 0 612
-1118 462 c-614 254 -1558 645 -2097 868 -539 223 -1222 506 -1517 628 -295
122 -534 225 -530 228 4 3 140 60 302 127 291 119 2321 952 3685 1512 385 158
829 340 988 405 l287 118 0 608 c0 481 -3 609 -12 608 -7 -1 -222 -90 -478
-199z"/>
<path d="M28320 30924 c-4 -222 2 -1209 7 -1214 4 -4 258 -109 563 -235 305
-125 706 -289 890 -365 793 -326 2407 -989 3030 -1245 826 -339 769 -314 750
-324 -8 -5 -251 -107 -540 -226 -289 -120 -761 -315 -1050 -435 -289 -120
-669 -277 -845 -350 -176 -73 -653 -271 -1060 -440 -407 -169 -966 -400 -1242
-515 l-503 -208 -2 -609 c-2 -336 -1 -611 2 -612 3 -2 181 72 395 164 215 92
887 380 1495 640 608 260 1377 588 1710 731 333 142 1152 492 1820 778 l1215
519 0 577 0 577 -450 190 c-247 104 -720 304 -1050 443 -330 139 -1167 492
-1860 785 -1226 517 -1439 607 -2665 1125 -322 136 -591 250 -597 252 -7 3
-13 1 -13 -3z"/>
</g>
</svg>
