<?xml version="1.0" standalone="no"?>
<!DOCTYPE svg PUBLIC "-//W3C//DTD SVG 20010904//EN"
 "http://www.w3.org/TR/2001/REC-SVG-20010904/DTD/svg10.dtd">
<svg version="1.0" xmlns="http://www.w3.org/2000/svg"
 width="5120.000000pt" height="5120.000000pt" viewBox="0 0 5120.000000 5120.000000"
 preserveAspectRatio="xMidYMid meet">
<metadata>
Created by potrace 1.16, written by Peter Selinger 2001-2019
</metadata>
<g transform="translate(0.000000,5120.000000) scale(0.100000,-0.100000)"
fill="#000000" stroke="none">
<path d="M6890 40995 c-91 -17 -216 -77 -286 -139 -68 -60 -138 -165 -172
-256 l-27 -75 -3 -12118 c-2 -10558 0 -12127 12 -12188 49 -231 222 -410 447
-464 57 -13 935 -15 7817 -15 l7752 0 0 -2175 0 -2175 -2818 0 c-2774 0 -2820
0 -2896 -20 -170 -43 -311 -157 -384 -311 -47 -99 -62 -162 -62 -267 1 -266
172 -494 430 -574 l75 -23 8825 0 8825 0 75 23 c104 33 196 89 268 167 222
237 217 602 -12 829 -82 82 -162 128 -272 156 -76 20 -122 20 -2896 20 l-2818
0 0 2175 0 2175 7753 0 c6900 0 7759 2 7816 15 225 53 399 234 447 464 12 61
14 1630 12 12188 l-3 12118 -27 75 c-34 91 -104 196 -172 256 -72 64 -194 122
-291 139 -117 21 -37299 21 -37415 0z m36710 -12620 l0 -11435 -18000 0
-18000 0 0 11435 0 11435 18000 0 18000 0 0 -11435z m-16030 -14810 l0 -2175
-1970 0 -1970 0 0 2175 0 2175 1970 0 1970 0 0 -2175z"/>
<path d="M26810 34914 c0 -4 -75 -273 -166 -598 -167 -594 -754 -2689 -864
-3081 -32 -115 -163 -581 -290 -1035 -127 -454 -294 -1048 -370 -1320 -76
-272 -243 -866 -370 -1320 -127 -454 -402 -1432 -610 -2175 -208 -742 -516
-1842 -685 -2443 -168 -601 -309 -1100 -312 -1108 -4 -12 81 -14 624 -14 l629
0 118 423 c142 511 357 1277 795 2842 662 2367 991 3543 1034 3700 25 88 100
356 167 595 149 534 707 2530 980 3505 396 1417 562 2008 567 2021 4 12 -95
14 -621 14 -344 0 -626 -3 -626 -6z"/>
<path d="M21010 32084 c-630 -267 -1343 -568 -1585 -670 -242 -102 -667 -282
-945 -399 -278 -117 -707 -299 -955 -403 -247 -105 -931 -393 -1520 -642 -588
-248 -1332 -562 -1652 -697 l-583 -247 0 -726 0 -725 303 -129 c166 -71 568
-243 892 -382 747 -319 2743 -1172 4165 -1780 602 -257 1529 -653 2060 -880
l965 -413 5 767 c3 422 2 771 -1 775 -6 7 -151 69 -804 339 -93 39 -287 119
-430 178 -423 176 -2391 991 -2765 1145 -404 167 -1402 580 -1775 735 -143 59
-377 156 -520 215 -328 135 -349 144 -344 149 4 4 439 183 1214 501 165 68
640 262 1055 433 835 343 2579 1058 3415 1402 717 294 797 327 883 364 l73 31
-1 769 c0 423 -1 770 -3 771 -1 1 -517 -215 -1147 -481z"/>
<path d="M29030 31797 l0 -774 208 -86 c239 -98 1157 -476 2097 -862 358 -147
812 -334 1010 -415 591 -243 3023 -1243 3218 -1323 l108 -44 -48 -21 c-47 -20
-1766 -733 -2723 -1129 -272 -113 -666 -276 -875 -363 -383 -159 -2505 -1038
-2820 -1169 l-170 -70 -3 -775 -2 -776 47 19 c27 10 84 35 128 54 44 19 328
141 630 270 676 289 2552 1091 4215 1801 685 293 1723 737 2308 987 l1062 454
0 726 c0 572 -3 728 -12 732 -7 2 -562 236 -1233 520 -671 283 -1467 619
-1770 747 -302 128 -694 293 -870 367 -176 74 -464 196 -640 270 -176 75 -435
184 -575 243 -140 59 -934 394 -1765 745 -830 350 -1513 639 -1517 642 -5 2
-8 -344 -8 -770z"/>
</g>
</svg>
