<svg id="svg" version="1.1" xmlns="http://www.w3.org/2000/svg" xmlns:xlink="http://www.w3.org/1999/xlink" width="400" height="400" viewBox="0, 0, 400,400"><g id="svgg"><path id="path0" d="M71.000 69.476 C 69.460 69.788,67.660 70.148,67.000 70.277 C 66.340 70.405,65.710 70.622,65.600 70.758 C 65.128 71.340,62.533 73.106,61.800 73.344 C 60.753 73.683,56.000 78.108,56.000 78.743 C 56.000 79.013,55.190 80.100,54.200 81.159 C 53.210 82.217,52.400 83.351,52.400 83.678 C 52.400 84.005,51.879 85.336,51.243 86.636 C 48.177 92.899,48.344 85.733,48.479 205.258 C 48.590 303.515,48.655 312.780,49.246 313.458 C 49.602 313.866,50.002 314.664,50.137 315.231 C 50.271 315.798,50.835 316.753,51.390 317.352 C 51.988 317.996,52.400 318.915,52.400 319.602 C 52.400 320.472,52.795 321.080,53.981 322.033 C 54.851 322.732,56.023 324.000,56.587 324.852 C 57.372 326.038,57.874 326.400,58.734 326.400 C 59.407 326.400,60.376 326.864,61.156 327.561 C 61.871 328.199,63.069 328.836,63.817 328.977 C 64.566 329.117,65.322 329.490,65.499 329.805 C 66.238 331.125,71.145 331.184,180.400 331.182 C 286.585 331.180,291.526 331.128,293.800 329.983 C 294.240 329.761,295.860 329.349,297.399 329.067 C 300.107 328.570,301.731 327.249,299.729 327.172 C 298.181 327.112,300.566 326.457,302.436 326.428 C 303.989 326.404,304.341 326.247,304.725 325.406 C 304.974 324.859,305.716 324.184,306.374 323.906 C 307.746 323.325,313.600 317.750,313.600 317.023 C 313.600 316.757,314.050 316.117,314.600 315.600 C 315.150 315.083,315.600 314.434,315.600 314.157 C 315.600 313.880,315.937 313.547,316.349 313.416 C 316.819 313.267,317.182 312.667,317.321 311.810 C 317.443 311.057,318.006 309.760,318.571 308.928 C 319.137 308.095,319.600 307.091,319.600 306.695 C 319.600 306.300,320.034 304.944,320.565 303.683 C 321.096 302.421,321.735 300.222,321.985 298.795 C 322.395 296.458,323.410 292.798,325.590 285.800 C 326.001 284.480,326.435 282.432,326.556 281.249 C 326.676 280.067,327.050 278.678,327.387 278.163 C 327.724 277.649,328.000 276.592,328.000 275.814 C 328.000 275.036,328.155 274.400,328.345 274.400 C 328.535 274.400,328.899 273.275,329.154 271.900 C 329.409 270.525,329.973 268.286,330.409 266.925 C 330.844 265.564,331.201 264.124,331.202 263.725 C 331.204 263.326,331.476 262.481,331.806 261.847 C 332.137 261.213,332.515 259.953,332.646 259.047 C 332.777 258.141,333.210 256.410,333.608 255.200 C 334.006 253.990,334.735 251.200,335.229 249.000 C 335.722 246.800,336.287 244.678,336.485 244.285 C 336.683 243.892,337.107 242.197,337.428 240.519 C 337.749 238.841,338.234 237.202,338.506 236.876 C 338.778 236.551,339.213 235.096,339.473 233.642 C 339.733 232.189,340.339 229.650,340.818 228.000 C 341.298 226.350,342.040 223.560,342.466 221.800 C 342.893 220.040,343.683 216.971,344.221 214.980 C 344.760 212.988,345.200 210.886,345.200 210.307 C 345.200 209.632,345.467 209.169,345.944 209.018 C 346.565 208.821,346.724 208.238,346.901 205.491 C 347.060 203.039,347.380 201.676,348.157 200.142 C 348.731 199.010,349.200 197.626,349.200 197.066 C 349.200 196.505,349.380 195.936,349.600 195.800 C 349.820 195.664,350.001 194.978,350.003 194.276 C 350.004 193.574,350.364 191.504,350.803 189.675 C 351.241 187.846,351.600 185.677,351.600 184.855 C 351.600 184.033,351.818 183.142,352.084 182.876 C 352.462 182.498,352.414 182.132,351.862 181.197 C 351.474 180.540,350.983 178.932,350.773 177.624 C 350.562 176.316,349.942 174.354,349.395 173.265 C 348.848 172.175,348.400 170.995,348.400 170.642 C 348.400 170.289,348.227 170.000,348.016 170.000 C 347.678 170.000,346.709 169.050,344.131 166.189 C 343.729 165.742,342.590 164.757,341.600 163.999 C 340.610 163.241,339.673 162.439,339.518 162.216 C 339.363 161.993,338.193 161.605,336.918 161.353 C 335.643 161.101,333.600 160.524,332.378 160.071 C 330.469 159.364,329.192 159.244,323.321 159.221 C 315.064 159.190,312.195 158.365,314.015 156.545 C 314.481 156.079,315.381 145.791,315.357 141.200 C 315.338 137.610,314.563 132.647,313.772 131.039 C 313.457 130.400,313.200 129.474,313.200 128.981 C 313.200 128.489,312.944 127.987,312.630 127.867 C 312.317 127.747,311.762 126.962,311.396 126.124 C 310.280 123.562,309.685 122.617,308.927 122.200 C 307.931 121.652,307.666 121.241,307.180 119.482 C 306.920 118.544,306.424 117.828,305.880 117.606 C 305.396 117.408,304.574 116.784,304.053 116.218 C 303.532 115.653,302.587 114.883,301.953 114.508 C 301.318 114.134,300.697 113.506,300.573 113.114 C 300.448 112.722,299.864 112.284,299.273 112.141 C 298.683 111.997,297.266 111.456,296.124 110.939 C 289.176 107.792,296.237 108.031,209.600 108.008 C 166.810 107.997,131.568 107.840,131.283 107.660 C 130.896 107.414,130.732 105.266,130.628 99.091 C 130.503 91.660,130.412 90.739,129.699 89.725 C 129.264 89.106,128.666 87.880,128.369 87.000 C 127.810 85.342,126.588 83.296,125.744 82.600 C 125.476 82.380,125.063 81.480,124.825 80.600 C 124.526 79.493,123.820 78.507,122.533 77.400 C 121.509 76.520,119.794 74.945,118.720 73.900 C 117.590 72.800,116.396 71.999,115.884 71.998 C 114.486 71.994,111.894 71.176,110.785 70.388 C 108.484 68.753,78.012 68.054,71.000 69.476 M288.800 112.000 C 289.285 112.314,289.228 112.389,288.500 112.394 C 288.005 112.397,287.600 112.220,287.600 112.000 C 287.600 111.499,288.024 111.499,288.800 112.000 M289.000 138.989 C 291.409 139.687,294.316 141.504,294.636 142.513 C 294.764 142.916,295.272 143.399,295.765 143.587 C 296.859 144.003,298.033 149.758,297.888 154.000 C 297.801 156.564,297.815 156.602,298.900 156.727 C 299.979 156.851,300.488 157.600,299.494 157.600 C 299.216 157.600,298.311 157.963,297.483 158.407 C 295.985 159.210,295.550 159.213,206.889 159.125 C 157.890 159.077,116.725 159.056,115.411 159.079 C 111.733 159.143,104.675 160.452,104.136 161.171 C 103.470 162.059,102.276 160.897,101.626 158.729 C 101.197 157.297,101.215 157.024,101.758 156.719 C 102.279 156.428,102.344 155.860,102.138 153.424 C 101.772 149.087,103.834 142.595,105.846 141.755 C 106.580 141.448,107.983 140.632,108.964 139.940 C 109.945 139.248,111.416 138.574,112.231 138.441 C 115.808 137.859,286.931 138.390,289.000 138.989 " stroke="none" fill="#f7c729" fill-rule="evenodd"></path><path id="path1" d="M0.000 200.000 L 0.000 400.000 200.000 400.000 L 400.000 400.000 400.000 200.000 L 400.000 0.000 200.000 0.000 L 0.000 0.000 0.000 200.000 M93.300 65.899 C 90.605 65.968,86.195 65.968,83.500 65.899 C 80.805 65.830,83.010 65.773,88.400 65.773 C 93.790 65.773,95.995 65.830,93.300 65.899 M117.198 67.700 C 117.196 68.008,116.566 68.224,115.555 68.263 C 112.580 68.376,113.649 70.793,116.676 70.799 C 117.158 70.799,117.664 70.980,117.800 71.200 C 117.936 71.420,118.310 71.600,118.632 71.600 C 118.953 71.600,120.428 72.856,121.908 74.390 C 125.461 78.073,125.873 78.571,126.185 79.552 C 126.330 80.008,127.067 81.123,127.824 82.029 C 128.581 82.935,129.200 84.035,129.200 84.475 C 129.200 84.914,129.560 85.731,130.000 86.291 C 130.531 86.966,130.800 87.914,130.800 89.110 C 130.800 90.216,131.025 91.083,131.381 91.356 C 132.071 91.883,132.994 99.604,132.690 102.303 C 132.510 103.896,132.584 104.090,133.513 104.443 L 134.534 104.831 133.667 105.438 C 133.190 105.772,132.800 106.217,132.800 106.426 C 132.800 106.667,161.919 106.803,211.568 106.796 L 290.336 106.785 293.068 107.664 C 294.571 108.148,296.552 109.052,297.472 109.672 C 298.392 110.292,299.416 110.800,299.748 110.800 C 300.081 110.800,300.464 110.980,300.600 111.200 C 300.736 111.420,301.163 111.600,301.549 111.600 C 301.935 111.600,302.779 112.156,303.425 112.836 C 304.071 113.515,305.092 114.329,305.694 114.643 C 306.296 114.957,306.899 115.655,307.034 116.193 C 307.169 116.731,307.622 117.280,308.040 117.413 C 308.458 117.545,308.800 117.889,308.800 118.177 C 308.800 118.464,309.437 119.395,310.217 120.246 C 310.996 121.096,311.744 122.244,311.880 122.796 C 312.016 123.348,312.403 124.227,312.741 124.749 C 313.294 125.603,313.809 126.868,315.123 130.600 C 317.467 137.260,317.485 137.548,316.395 151.148 C 316.108 154.733,316.077 157.037,316.311 157.271 C 316.518 157.478,320.425 157.728,324.995 157.827 C 332.110 157.982,333.556 158.120,335.069 158.789 C 336.040 159.219,337.472 159.690,338.252 159.836 C 339.687 160.105,347.570 166.799,348.562 168.591 C 348.803 169.026,349.228 169.566,349.508 169.791 C 352.106 171.887,354.021 187.781,352.200 192.138 C 351.870 192.928,351.600 194.008,351.600 194.538 C 351.600 195.068,351.330 195.726,351.000 196.000 C 350.591 196.340,350.400 197.248,350.400 198.856 C 350.400 200.606,350.137 201.717,349.382 203.161 C 348.823 204.231,348.268 205.803,348.151 206.653 C 348.033 207.504,347.779 208.560,347.586 209.000 C 347.394 209.440,346.966 211.296,346.636 213.124 C 346.305 214.951,345.757 217.004,345.418 217.685 C 345.078 218.366,344.799 219.300,344.798 219.761 C 344.796 220.223,344.526 221.116,344.198 221.746 C 343.869 222.376,343.600 223.208,343.600 223.595 C 343.600 223.981,343.150 225.676,342.600 227.361 C 341.519 230.674,341.257 234.375,342.100 234.436 C 342.375 234.456,342.015 234.641,341.300 234.848 C 340.183 235.170,339.999 235.404,339.991 236.511 C 339.986 237.220,339.431 239.780,338.757 242.200 C 338.084 244.620,337.354 247.320,337.136 248.200 C 336.918 249.080,336.295 251.330,335.751 253.200 C 335.208 255.070,334.573 257.320,334.340 258.200 C 334.107 259.080,333.747 260.232,333.540 260.760 C 333.332 261.288,332.986 263.130,332.770 264.854 C 332.553 266.578,332.022 268.816,331.588 269.827 C 331.155 270.839,330.800 272.151,330.800 272.744 C 330.800 273.337,330.440 274.130,330.000 274.507 C 329.534 274.906,329.200 275.687,329.200 276.376 C 329.200 278.211,328.380 281.644,327.551 283.284 C 327.138 284.100,326.800 285.405,326.800 286.184 C 326.800 286.963,326.620 287.600,326.400 287.600 C 326.180 287.600,326.000 288.036,326.000 288.569 C 326.000 290.023,325.180 293.616,324.491 295.184 C 324.157 295.945,323.795 297.344,323.688 298.293 C 323.581 299.242,323.338 300.115,323.147 300.233 C 322.956 300.351,322.800 301.222,322.800 302.170 C 322.800 303.282,322.519 304.250,322.007 304.901 C 321.570 305.455,320.954 306.905,320.637 308.122 C 320.320 309.340,319.789 310.755,319.458 311.268 C 319.126 311.781,318.475 313.190,318.010 314.400 C 317.449 315.861,316.522 317.204,315.250 318.400 C 307.734 325.462,306.224 326.800,305.768 326.800 C 305.485 326.800,305.139 327.162,304.999 327.604 C 304.644 328.721,303.068 329.439,299.892 329.930 C 298.402 330.161,296.628 330.627,295.949 330.966 C 295.270 331.304,293.248 331.772,291.457 332.005 C 286.701 332.624,65.936 332.372,65.161 331.747 C 64.853 331.497,63.654 331.094,62.498 330.851 C 60.060 330.337,57.194 328.663,56.913 327.588 C 56.806 327.179,56.336 326.790,55.869 326.722 C 55.402 326.655,54.802 326.161,54.536 325.625 C 54.269 325.088,53.590 324.407,53.025 324.112 C 52.461 323.816,52.000 323.335,52.000 323.043 C 52.000 322.751,51.390 321.865,50.644 321.074 C 49.305 319.654,48.000 316.660,48.000 315.009 C 48.000 314.542,47.775 313.935,47.500 313.660 C 46.815 312.975,46.759 92.125,47.444 91.685 C 47.689 91.528,48.015 90.548,48.168 89.507 C 48.451 87.585,50.988 82.000,51.578 82.000 C 51.755 82.000,52.007 81.463,52.139 80.807 C 52.270 80.151,52.832 79.219,53.389 78.735 C 53.945 78.251,54.400 77.612,54.400 77.314 C 54.400 77.017,54.985 76.425,55.700 75.999 C 56.415 75.574,57.503 74.590,58.117 73.813 C 58.731 73.036,59.500 72.400,59.826 72.400 C 60.152 72.400,61.193 71.686,62.140 70.813 C 65.159 68.030,67.448 67.802,92.476 67.791 C 104.068 67.786,113.683 67.651,113.843 67.491 C 114.352 66.981,117.200 67.159,117.198 67.700 M130.372 79.500 C 130.347 80.460,130.303 80.498,130.022 79.800 C 129.845 79.360,129.778 78.865,129.874 78.700 C 130.212 78.114,130.400 78.415,130.372 79.500 M141.600 105.043 C 141.600 105.129,140.835 105.179,139.900 105.153 C 138.340 105.109,138.299 105.082,139.400 104.827 C 140.514 104.569,141.600 104.676,141.600 105.043 M313.011 109.923 C 312.503 110.431,312.041 109.033,312.523 108.447 C 312.925 107.959,313.021 108.009,313.132 108.768 C 313.205 109.264,313.150 109.783,313.011 109.923 M117.400 140.000 C 117.264 140.220,116.357 140.400,115.384 140.400 C 113.255 140.400,110.573 141.376,109.178 142.660 C 108.616 143.177,107.875 143.600,107.532 143.600 C 106.519 143.600,104.800 145.187,104.794 146.129 C 104.791 146.608,104.529 147.720,104.212 148.600 C 103.553 150.429,103.399 156.229,104.000 156.600 C 104.220 156.736,104.400 157.186,104.400 157.600 C 104.400 158.766,104.980 158.879,107.543 158.215 C 109.644 157.670,120.478 157.600,202.132 157.600 C 263.862 157.600,294.703 157.465,295.421 157.192 L 296.495 156.784 296.317 153.092 C 296.109 148.797,294.694 144.910,293.788 146.149 C 293.000 147.226,292.603 146.909,291.808 144.570 C 290.984 142.147,290.014 141.200,288.358 141.200 C 287.630 141.200,287.227 140.947,287.084 140.400 C 286.846 139.490,117.961 139.092,117.400 140.000 M320.676 142.700 C 320.575 143.085,320.493 142.770,320.493 142.000 C 320.493 141.230,320.575 140.915,320.676 141.300 C 320.776 141.685,320.776 142.315,320.676 142.700 M288.360 144.700 C 288.252 146.605,287.680 147.399,287.640 145.700 C 287.618 144.765,287.780 144.000,288.000 144.000 C 288.220 144.000,288.382 144.315,288.360 144.700 M293.972 154.876 C 293.999 156.302,293.483 157.181,293.040 156.464 C 292.921 156.272,292.938 155.152,293.078 153.974 C 293.358 151.608,293.920 152.176,293.972 154.876 M289.930 154.687 C 290.223 155.992,290.185 156.397,289.752 156.563 C 289.327 156.726,289.200 156.303,289.200 154.721 C 289.200 152.349,289.403 152.340,289.930 154.687 M349.376 164.039 C 349.216 164.297,348.928 164.273,348.564 163.970 C 347.711 163.262,347.889 162.712,348.811 163.206 C 349.257 163.445,349.511 163.820,349.376 164.039 M350.098 210.200 C 349.993 210.750,349.838 211.200,349.753 211.200 C 349.669 211.200,349.600 210.750,349.600 210.200 C 349.600 209.650,349.755 209.200,349.945 209.200 C 350.134 209.200,350.203 209.650,350.098 210.200 M345.844 229.029 C 345.724 229.343,345.439 229.600,345.213 229.600 C 344.653 229.600,344.692 228.539,345.291 227.474 L 345.782 226.600 345.923 227.529 C 346.000 228.040,345.965 228.715,345.844 229.029 M348.776 233.517 C 349.130 234.751,348.475 235.541,347.564 234.978 C 347.044 234.656,347.114 233.046,347.673 232.487 C 348.255 231.905,348.336 231.980,348.776 233.517 M337.675 272.596 C 337.809 273.742,337.707 274.000,337.120 274.000 C 336.571 274.000,336.400 273.684,336.400 272.667 C 336.400 270.311,337.402 270.256,337.675 272.596 " stroke="none" fill="#fbfbfb" fill-rule="evenodd"></path><path id="path2" d="M80.873 68.299 C 85.204 68.364,92.404 68.364,96.873 68.300 C 101.343 68.235,97.800 68.182,89.000 68.182 C 80.200 68.182,76.543 68.235,80.873 68.299 M69.200 68.813 C 68.554 69.029,68.980 69.066,70.400 68.919 C 71.610 68.794,72.675 68.626,72.767 68.546 C 73.087 68.265,70.191 68.483,69.200 68.813 M108.800 68.941 C 110.230 69.232,112.390 69.947,113.600 70.531 C 114.810 71.115,116.077 71.594,116.415 71.596 C 117.062 71.600,121.960 75.706,123.498 77.533 C 123.992 78.120,124.397 78.364,124.398 78.076 C 124.401 77.386,119.336 72.602,117.800 71.843 C 113.155 69.550,110.801 68.712,108.600 68.569 L 106.200 68.412 108.800 68.941 M64.747 70.107 C 63.949 70.598,62.329 71.582,61.147 72.293 C 57.920 74.237,53.207 79.278,51.999 82.078 C 51.781 82.585,51.428 83.270,51.215 83.600 C 50.466 84.759,49.119 88.143,48.602 90.161 C 47.167 95.768,47.149 97.339,47.278 205.400 L 47.404 311.400 48.289 314.152 C 49.329 317.387,50.657 320.070,51.442 320.520 C 51.749 320.696,52.000 321.101,52.000 321.419 C 52.000 322.104,56.395 326.800,57.035 326.800 C 57.278 326.800,57.819 327.180,58.238 327.644 C 59.040 328.532,61.192 329.617,63.694 330.394 C 64.516 330.650,65.292 331.025,65.418 331.229 C 65.544 331.433,66.492 331.569,67.524 331.530 L 69.400 331.460 67.629 331.304 C 66.656 331.218,65.416 330.799,64.876 330.374 C 64.335 329.948,63.639 329.600,63.330 329.600 C 62.547 329.600,59.850 328.184,59.246 327.455 C 58.970 327.123,58.217 326.736,57.572 326.594 C 56.928 326.452,56.400 326.193,56.400 326.019 C 56.400 325.844,55.507 324.834,54.415 323.775 C 53.324 322.717,52.319 321.344,52.184 320.725 C 52.048 320.106,51.800 319.600,51.634 319.600 C 51.235 319.600,49.200 315.565,49.200 314.774 C 49.200 314.436,48.989 313.949,48.731 313.691 C 47.797 312.757,47.639 296.665,47.640 202.571 C 47.642 104.242,47.779 94.036,49.158 89.752 C 50.056 86.961,52.695 81.312,53.265 80.960 C 53.474 80.831,54.130 79.969,54.723 79.045 C 56.752 75.881,62.266 71.586,66.400 69.950 C 67.803 69.394,67.980 69.235,67.200 69.225 C 66.650 69.219,65.546 69.615,64.747 70.107 M125.348 79.600 C 125.649 80.370,126.549 81.963,127.348 83.140 C 128.146 84.317,128.800 85.541,128.800 85.860 C 128.800 86.179,129.100 87.016,129.467 87.720 C 129.834 88.424,130.265 89.540,130.426 90.200 C 130.661 91.166,130.726 91.222,130.759 90.491 C 130.782 89.991,130.217 88.191,129.504 86.491 C 128.371 83.789,127.743 82.663,125.300 78.958 C 124.956 78.437,124.971 78.637,125.348 79.600 M131.027 93.200 C 131.180 94.190,131.360 97.680,131.427 100.955 C 131.495 104.230,131.702 107.062,131.889 107.249 C 132.076 107.436,167.772 107.638,211.214 107.699 C 276.542 107.791,290.477 107.904,291.800 108.354 C 292.680 108.653,294.715 109.506,296.321 110.249 C 297.928 110.992,299.338 111.600,299.454 111.600 C 299.751 111.600,303.024 114.234,305.400 116.385 C 307.596 118.374,310.341 122.147,312.195 125.726 C 312.852 126.994,313.445 127.866,313.513 127.662 C 313.672 127.183,311.004 122.314,309.312 120.000 C 307.377 117.352,305.972 116.012,300.959 112.029 C 300.098 111.345,293.637 108.400,292.998 108.400 C 292.640 108.400,291.954 108.175,291.474 107.900 C 290.786 107.507,273.730 107.357,211.400 107.200 L 132.200 107.000 132.134 104.600 C 131.955 98.108,131.529 92.612,131.160 92.038 C 130.865 91.579,130.827 91.906,131.027 93.200 M313.600 129.320 C 313.600 129.709,313.853 130.427,314.162 130.914 C 314.472 131.401,314.950 132.836,315.226 134.102 C 315.503 135.369,315.806 136.328,315.900 136.233 C 315.994 136.139,315.843 135.013,315.565 133.731 C 315.033 131.287,313.600 128.069,313.600 129.320 M316.151 140.000 C 316.193 142.936,315.711 149.599,314.987 156.082 L 314.777 157.963 316.483 158.422 C 317.439 158.680,319.159 158.776,320.395 158.641 C 330.444 157.542,340.827 160.984,346.011 167.132 C 346.692 167.940,347.688 169.065,348.224 169.633 C 348.761 170.202,349.200 170.872,349.200 171.123 C 349.200 171.373,349.551 172.348,349.979 173.289 C 352.753 179.378,353.047 183.914,351.168 191.600 C 350.495 194.350,349.769 197.320,349.555 198.200 C 349.341 199.080,348.820 200.790,348.398 202.000 C 347.650 204.147,346.743 208.854,347.021 209.147 C 347.098 209.228,347.267 208.778,347.397 208.147 C 347.649 206.920,348.715 202.874,350.070 198.000 C 350.529 196.350,351.047 194.370,351.222 193.600 C 351.397 192.830,351.817 191.120,352.156 189.800 C 353.067 186.249,352.991 180.312,352.000 177.600 C 351.560 176.396,351.200 175.175,351.200 174.886 C 351.200 174.598,350.840 173.616,350.400 172.706 C 349.960 171.795,349.600 170.926,349.600 170.775 C 349.600 170.015,344.413 164.724,341.400 162.410 C 337.412 159.348,328.036 157.507,320.200 158.247 C 318.818 158.378,317.315 158.286,316.657 158.031 L 315.513 157.587 315.769 153.093 C 315.910 150.622,316.227 146.800,316.475 144.600 C 316.790 141.796,316.802 140.002,316.513 138.600 C 316.113 136.656,316.103 136.695,316.151 140.000 M113.400 139.072 C 105.816 140.776,102.816 145.194,102.805 154.676 C 102.799 160.533,102.442 160.245,108.418 159.213 C 113.209 158.386,113.806 158.381,204.826 158.410 C 255.198 158.426,296.590 158.330,296.806 158.196 C 297.622 157.692,297.232 149.191,296.279 146.713 C 295.462 144.589,291.494 140.400,290.298 140.400 C 290.113 140.400,289.216 140.040,288.306 139.600 C 286.746 138.847,116.689 138.334,113.400 139.072 M287.515 139.850 C 287.672 140.097,288.385 140.426,289.101 140.582 C 289.816 140.737,291.136 141.569,292.033 142.432 C 292.931 143.294,293.876 144.000,294.133 144.001 C 295.906 144.003,297.848 156.232,296.282 157.532 C 295.807 157.926,276.683 158.025,204.322 158.008 C 134.799 157.991,112.201 158.101,109.781 158.469 C 108.031 158.735,105.880 158.964,105.000 158.977 L 103.400 159.000 103.282 154.800 C 103.135 149.572,104.315 144.717,105.989 143.668 C 106.545 143.320,107.517 142.615,108.148 142.102 C 109.834 140.735,111.869 139.975,114.800 139.618 C 119.118 139.094,287.178 139.319,287.515 139.850 M346.067 210.080 C 346.030 210.675,345.713 212.205,345.363 213.480 C 345.013 214.756,344.465 216.880,344.146 218.200 C 343.827 219.520,343.415 221.140,343.230 221.800 C 342.614 223.998,341.174 228.967,340.382 231.628 C 339.595 234.272,339.397 235.536,339.838 235.095 C 340.066 234.867,341.979 228.231,342.940 224.333 C 343.193 223.306,343.535 222.331,343.700 222.166 C 343.865 222.002,344.000 221.478,344.000 221.003 C 344.000 220.528,344.550 218.300,345.223 216.052 C 345.970 213.555,346.385 211.387,346.290 210.482 C 346.179 209.427,346.115 209.311,346.067 210.080 M338.690 238.912 C 338.323 240.060,337.545 242.800,336.962 245.000 C 336.379 247.200,335.628 249.949,335.293 251.109 C 334.959 252.269,334.787 253.320,334.911 253.444 C 335.147 253.680,335.277 253.256,338.021 243.285 C 339.640 237.400,340.069 234.600,338.690 238.912 M333.844 256.605 C 333.431 258.047,333.178 259.312,333.282 259.416 C 333.550 259.684,334.930 254.991,334.746 254.439 C 334.663 254.189,334.257 255.163,333.844 256.605 M332.485 261.213 C 332.218 261.640,332.000 262.418,332.000 262.943 C 332.000 263.467,331.461 265.765,330.802 268.048 C 330.144 270.332,329.604 272.494,329.602 272.854 C 329.601 273.214,329.331 274.024,329.002 274.654 C 328.674 275.284,328.404 276.119,328.402 276.510 C 328.401 276.900,328.040 278.244,327.600 279.496 C 327.160 280.748,326.815 282.049,326.832 282.386 C 326.890 283.472,327.924 280.690,328.611 277.600 C 328.978 275.950,329.441 274.429,329.639 274.220 C 329.838 274.011,330.000 273.470,330.000 273.018 C 330.000 272.566,330.540 270.488,331.200 268.400 C 331.860 266.312,332.400 264.096,332.400 263.476 C 332.400 262.855,332.595 261.984,332.832 261.539 C 333.399 260.481,333.111 260.210,332.485 261.213 M326.509 284.800 C 326.509 285.790,326.587 286.195,326.682 285.700 C 326.778 285.205,326.778 284.395,326.682 283.900 C 326.587 283.405,326.509 283.810,326.509 284.800 M325.685 287.300 C 325.458 287.575,325.151 288.520,325.003 289.400 C 324.855 290.280,324.396 292.080,323.984 293.400 C 323.571 294.720,322.948 297.060,322.600 298.600 C 320.907 306.082,316.997 314.943,314.512 316.929 C 314.011 317.330,313.600 317.880,313.600 318.152 C 313.600 318.616,309.505 322.522,306.953 324.491 C 306.319 324.981,305.620 325.591,305.400 325.846 C 305.180 326.102,304.320 326.527,303.490 326.790 C 302.659 327.053,301.489 327.680,300.890 328.183 C 300.290 328.685,299.170 329.222,298.400 329.376 C 297.630 329.530,295.920 329.995,294.600 330.409 C 293.280 330.823,291.660 331.233,291.000 331.321 C 290.050 331.447,290.148 331.493,291.467 331.540 C 292.384 331.573,293.942 331.254,294.930 330.830 C 295.918 330.407,297.555 329.936,298.568 329.784 C 299.581 329.632,300.510 329.346,300.632 329.148 C 300.755 328.950,301.427 328.514,302.127 328.180 C 304.925 326.842,305.905 326.195,308.391 324.043 C 312.148 320.791,315.948 316.812,316.837 315.200 C 317.261 314.430,317.758 313.530,317.941 313.200 C 319.513 310.368,322.043 303.235,323.041 298.820 C 323.367 297.379,323.974 295.120,324.389 293.800 C 324.805 292.480,325.268 290.590,325.418 289.600 C 325.568 288.610,325.872 287.575,326.094 287.300 C 326.316 287.025,326.408 286.800,326.298 286.800 C 326.188 286.800,325.912 287.025,325.685 287.300 M124.300 331.900 C 154.495 331.957,203.905 331.957,234.100 331.900 C 264.295 331.843,239.590 331.797,179.200 331.797 C 118.810 331.797,94.105 331.843,124.300 331.900 " stroke="none" fill="#f7e5a9" fill-rule="evenodd"></path><path id="path3" d="M70.200 68.985 C 64.424 70.042,57.689 74.420,54.723 79.045 C 54.130 79.969,53.474 80.831,53.265 80.960 C 52.695 81.312,50.056 86.961,49.158 89.752 C 47.779 94.036,47.642 104.242,47.640 202.571 C 47.639 296.665,47.797 312.757,48.731 313.691 C 48.989 313.949,49.200 314.436,49.200 314.774 C 49.200 315.565,51.235 319.600,51.634 319.600 C 51.800 319.600,52.048 320.106,52.184 320.725 C 52.319 321.344,53.324 322.717,54.415 323.775 C 55.507 324.834,56.400 325.844,56.400 326.019 C 56.400 326.193,56.928 326.452,57.572 326.594 C 58.217 326.736,58.970 327.123,59.246 327.455 C 59.850 328.184,62.547 329.600,63.330 329.600 C 63.639 329.600,64.407 330.005,65.036 330.500 L 66.180 331.400 178.990 331.400 L 291.800 331.400 294.400 330.528 C 295.830 330.048,297.630 329.534,298.400 329.385 C 299.170 329.236,300.161 328.783,300.603 328.378 C 301.044 327.974,302.034 327.370,302.803 327.037 L 304.200 326.431 302.400 326.444 C 300.573 326.456,298.169 327.112,299.729 327.172 C 301.731 327.249,300.107 328.570,297.399 329.067 C 295.860 329.349,294.240 329.761,293.800 329.983 C 291.526 331.128,286.585 331.180,180.400 331.182 C 71.145 331.184,66.238 331.125,65.499 329.805 C 65.322 329.490,64.566 329.117,63.817 328.977 C 63.069 328.836,61.871 328.199,61.156 327.561 C 60.376 326.864,59.407 326.400,58.734 326.400 C 57.874 326.400,57.372 326.038,56.587 324.852 C 56.023 324.000,54.851 322.732,53.981 322.033 C 52.795 321.080,52.400 320.472,52.400 319.602 C 52.400 318.915,51.988 317.996,51.390 317.352 C 50.835 316.753,50.271 315.798,50.137 315.231 C 50.002 314.664,49.602 313.866,49.246 313.458 C 48.655 312.780,48.590 303.515,48.479 205.258 C 48.344 85.733,48.177 92.899,51.243 86.636 C 51.879 85.336,52.400 84.005,52.400 83.678 C 52.400 83.351,53.210 82.217,54.200 81.159 C 55.190 80.100,56.000 79.013,56.000 78.743 C 56.000 78.108,60.753 73.683,61.800 73.344 C 62.533 73.106,65.128 71.340,65.600 70.758 C 65.710 70.622,66.340 70.408,67.000 70.283 C 67.660 70.158,69.640 69.777,71.400 69.436 C 78.812 67.999,108.431 68.715,110.785 70.388 C 111.894 71.176,114.486 71.994,115.884 71.998 C 116.396 71.999,117.590 72.800,118.720 73.900 C 119.794 74.945,121.509 76.520,122.533 77.400 C 123.820 78.507,124.526 79.493,124.825 80.600 C 125.063 81.480,125.476 82.380,125.744 82.600 C 126.630 83.330,127.844 85.378,128.363 87.019 C 128.905 88.734,130.376 90.957,130.391 90.084 C 130.396 89.800,130.040 88.862,129.600 88.000 C 129.160 87.138,128.800 86.181,128.800 85.875 C 128.800 85.569,127.990 84.085,127.000 82.578 C 126.010 81.071,125.200 79.685,125.200 79.499 C 125.200 78.669,117.339 71.600,116.415 71.600 C 116.077 71.600,114.695 71.076,113.343 70.437 C 111.992 69.798,109.618 69.078,108.067 68.838 C 103.972 68.202,73.835 68.319,70.200 68.985 M130.653 99.165 C 130.736 105.319,130.891 107.411,131.282 107.659 C 131.567 107.840,166.810 107.997,209.600 108.008 C 296.237 108.031,289.176 107.792,296.124 110.939 C 297.266 111.456,298.683 111.997,299.273 112.141 C 299.864 112.284,300.448 112.722,300.573 113.114 C 300.697 113.506,301.318 114.134,301.953 114.508 C 302.587 114.883,303.532 115.653,304.053 116.218 C 304.574 116.784,305.396 117.408,305.880 117.606 C 306.424 117.828,306.920 118.544,307.180 119.482 C 307.666 121.241,307.931 121.652,308.927 122.200 C 309.685 122.617,310.280 123.562,311.396 126.124 C 311.762 126.962,312.317 127.747,312.630 127.867 C 312.944 127.987,313.200 128.489,313.200 128.981 C 313.200 129.474,313.457 130.400,313.772 131.039 C 314.563 132.647,315.338 137.610,315.357 141.200 C 315.381 145.791,314.481 156.079,314.015 156.545 C 312.195 158.365,315.064 159.190,323.321 159.221 C 329.192 159.244,330.469 159.364,332.378 160.071 C 333.600 160.524,335.643 161.101,336.918 161.353 C 338.193 161.605,339.363 161.993,339.518 162.216 C 339.673 162.439,340.610 163.241,341.600 163.999 C 342.590 164.757,343.729 165.742,344.131 166.189 C 346.709 169.050,347.678 170.000,348.016 170.000 C 348.227 170.000,348.400 170.289,348.400 170.642 C 348.400 170.995,348.848 172.175,349.395 173.265 C 349.942 174.354,350.561 176.305,350.769 177.601 C 351.184 180.179,352.016 182.153,352.312 181.264 C 352.524 180.627,351.084 175.694,349.983 173.289 C 349.552 172.348,349.200 171.373,349.200 171.123 C 349.200 170.872,348.761 170.202,348.224 169.633 C 347.688 169.065,346.692 167.940,346.011 167.132 C 340.827 160.984,330.444 157.542,320.395 158.641 C 319.159 158.776,317.439 158.680,316.483 158.422 L 314.777 157.963 314.987 156.082 C 316.597 141.667,316.358 134.447,314.153 130.914 C 313.849 130.427,313.600 129.662,313.600 129.215 C 313.600 127.122,308.572 119.254,305.400 116.384 C 303.020 114.230,299.751 111.600,299.454 111.600 C 299.338 111.600,297.928 110.992,296.321 110.249 C 294.715 109.506,292.680 108.653,291.800 108.354 C 290.477 107.904,276.542 107.791,211.214 107.699 C 167.772 107.638,132.079 107.439,131.896 107.256 C 131.713 107.073,131.486 104.061,131.390 100.562 C 131.294 97.063,131.064 93.480,130.879 92.600 C 130.668 91.594,130.584 94.031,130.653 99.165 M287.600 112.000 C 287.600 112.220,288.005 112.397,288.500 112.394 C 289.228 112.389,289.285 112.314,288.800 112.000 C 288.024 111.499,287.600 111.499,287.600 112.000 M112.231 138.441 C 111.416 138.574,109.945 139.248,108.964 139.940 C 107.983 140.632,106.580 141.448,105.846 141.755 C 103.834 142.595,101.772 149.087,102.138 153.424 C 102.344 155.860,102.279 156.428,101.758 156.719 C 101.215 157.024,101.197 157.297,101.626 158.729 C 102.276 160.897,103.470 162.059,104.136 161.171 C 104.675 160.452,111.733 159.143,115.411 159.079 C 116.725 159.056,157.890 159.077,206.889 159.125 C 295.550 159.213,295.985 159.210,297.483 158.407 C 298.311 157.963,299.216 157.600,299.494 157.600 C 300.488 157.600,299.979 156.851,298.900 156.727 C 297.815 156.602,297.801 156.564,297.888 154.000 C 298.033 149.758,296.859 144.003,295.765 143.587 C 295.272 143.399,294.764 142.916,294.636 142.513 C 294.316 141.504,291.409 139.687,289.000 138.989 C 286.931 138.390,115.808 137.859,112.231 138.441 M288.306 139.600 C 289.216 140.040,290.113 140.400,290.298 140.400 C 291.494 140.400,295.462 144.589,296.279 146.713 C 297.232 149.191,297.622 157.692,296.806 158.196 C 296.590 158.330,255.198 158.426,204.826 158.410 C 113.806 158.381,113.209 158.386,108.418 159.213 C 102.442 160.245,102.799 160.533,102.805 154.676 C 102.816 145.194,105.816 140.776,113.400 139.072 C 116.689 138.334,286.746 138.847,288.306 139.600 M351.900 183.030 C 351.735 183.197,351.600 184.012,351.600 184.841 C 351.600 185.671,351.241 187.846,350.803 189.675 C 350.364 191.504,350.004 193.574,350.003 194.276 C 350.001 194.978,349.820 195.664,349.600 195.800 C 349.380 195.936,349.200 196.505,349.200 197.066 C 349.200 197.626,348.732 199.010,348.160 200.142 C 347.364 201.718,347.086 202.949,346.975 205.400 C 346.832 208.539,346.837 208.558,347.225 206.400 C 347.443 205.190,347.968 203.210,348.393 202.000 C 348.818 200.790,349.341 199.080,349.556 198.200 C 349.770 197.320,350.507 194.289,351.193 191.465 C 352.324 186.809,352.710 182.210,351.900 183.030 M345.700 209.065 C 345.425 209.176,345.200 209.738,345.200 210.313 C 345.200 210.888,344.760 212.988,344.221 214.980 C 343.683 216.971,342.893 220.040,342.466 221.800 C 342.040 223.560,341.298 226.350,340.818 228.000 C 340.339 229.650,339.733 232.189,339.473 233.642 C 339.213 235.096,338.778 236.551,338.506 236.876 C 338.234 237.202,337.749 238.841,337.428 240.519 C 337.107 242.197,336.683 243.892,336.485 244.285 C 336.287 244.678,335.722 246.800,335.229 249.000 C 334.735 251.200,334.006 253.990,333.608 255.200 C 333.210 256.410,332.777 258.141,332.646 259.047 C 332.515 259.953,332.137 261.213,331.806 261.847 C 331.476 262.481,331.204 263.326,331.202 263.725 C 331.201 264.124,330.844 265.564,330.409 266.925 C 329.973 268.286,329.409 270.525,329.154 271.900 C 328.899 273.275,328.535 274.400,328.345 274.400 C 328.155 274.400,328.000 275.036,328.000 275.814 C 328.000 276.592,327.724 277.649,327.387 278.163 C 327.050 278.678,326.687 280.067,326.580 281.249 L 326.385 283.400 327.013 281.400 C 327.358 280.300,327.914 278.320,328.248 277.000 C 328.581 275.680,329.022 274.429,329.227 274.220 C 329.432 274.011,329.601 273.471,329.602 273.020 C 329.604 272.569,330.144 270.332,330.802 268.048 C 331.461 265.765,332.006 263.425,332.013 262.848 C 332.020 262.272,332.290 261.451,332.613 261.024 C 332.936 260.596,333.200 259.904,333.200 259.486 C 333.200 259.067,333.570 257.436,334.023 255.862 C 334.890 252.848,335.230 251.587,337.008 244.800 C 337.613 242.490,338.444 239.648,338.854 238.485 C 339.264 237.322,339.600 235.895,339.600 235.313 C 339.600 234.732,339.952 233.074,340.382 231.628 C 341.174 228.967,342.614 223.998,343.230 221.800 C 343.415 221.140,343.827 219.520,344.146 218.200 C 344.465 216.880,345.013 214.756,345.363 213.480 C 345.713 212.205,346.000 210.735,346.000 210.214 C 346.000 209.693,346.225 209.176,346.500 209.065 C 346.775 208.954,346.820 208.863,346.600 208.863 C 346.380 208.863,345.975 208.954,345.700 209.065 M325.525 286.028 C 323.354 293.011,322.390 296.488,321.985 298.795 C 321.735 300.222,321.096 302.421,320.565 303.683 C 320.034 304.944,319.600 306.300,319.600 306.695 C 319.600 307.091,319.137 308.095,318.571 308.928 C 318.006 309.760,317.443 311.057,317.321 311.810 C 317.182 312.667,316.819 313.267,316.349 313.416 C 315.937 313.547,315.600 313.880,315.600 314.157 C 315.600 314.434,315.150 315.083,314.600 315.600 C 314.050 316.117,313.600 316.757,313.600 317.023 C 313.600 317.742,307.754 323.322,306.402 323.894 C 305.205 324.401,304.127 325.860,304.600 326.334 C 304.746 326.479,305.076 326.325,305.333 325.990 C 305.590 325.655,306.319 324.981,306.953 324.491 C 309.505 322.522,313.600 318.616,313.600 318.152 C 313.600 317.880,314.011 317.330,314.512 316.929 C 316.997 314.943,320.907 306.082,322.600 298.600 C 322.948 297.060,323.571 294.720,323.984 293.400 C 324.396 292.080,324.854 290.280,325.001 289.400 C 325.148 288.520,325.535 287.502,325.862 287.137 C 326.207 286.753,326.402 285.925,326.328 285.165 C 326.206 283.919,326.167 283.961,325.525 286.028 " stroke="none" fill="#eacc62" fill-rule="evenodd"></path><path id="path4" d="M83.500 65.899 C 86.195 65.968,90.605 65.968,93.300 65.899 C 95.995 65.830,93.790 65.773,88.400 65.773 C 83.010 65.773,80.805 65.830,83.500 65.899 M113.834 67.499 C 113.669 67.664,104.234 67.739,92.867 67.666 C 81.500 67.593,71.805 67.683,71.322 67.867 C 70.839 68.050,77.516 68.141,86.170 68.068 C 104.835 67.912,110.127 68.243,113.110 69.754 C 115.574 71.003,116.343 71.128,114.447 69.972 C 112.800 68.968,113.199 68.353,115.555 68.263 C 117.709 68.180,117.811 67.200,115.667 67.200 C 114.823 67.200,113.999 67.335,113.834 67.499 M65.820 68.867 C 64.384 69.141,63.370 69.679,62.129 70.823 C 61.188 71.690,60.152 72.400,59.826 72.400 C 59.500 72.400,58.731 73.036,58.117 73.813 C 57.503 74.590,56.415 75.574,55.700 75.999 C 54.985 76.425,54.400 77.039,54.400 77.364 C 54.400 77.689,54.069 78.190,53.663 78.477 C 52.847 79.057,52.000 80.471,52.000 81.255 C 52.000 81.534,52.675 80.817,53.500 79.661 C 57.184 74.503,63.539 69.902,68.400 68.876 C 70.870 68.355,68.547 68.347,65.820 68.867 M117.517 71.700 C 118.946 72.483,122.933 76.066,124.827 78.270 C 125.471 79.019,127.271 81.913,128.481 84.144 C 129.064 85.219,129.164 85.276,129.181 84.538 C 129.191 84.064,128.581 82.935,127.824 82.029 C 127.067 81.123,126.330 80.008,126.185 79.552 C 125.873 78.571,125.461 78.073,121.908 74.390 C 120.428 72.856,118.953 71.600,118.632 71.600 C 118.310 71.600,117.936 71.420,117.800 71.200 C 117.664 70.980,117.175 70.800,116.713 70.800 C 116.099 70.800,116.315 71.041,117.517 71.700 M129.874 78.700 C 129.778 78.865,129.845 79.360,130.022 79.800 C 130.303 80.498,130.347 80.460,130.372 79.500 C 130.400 78.415,130.212 78.114,129.874 78.700 M49.837 84.836 C 49.056 86.395,48.301 88.555,48.158 89.636 C 48.014 90.716,47.740 91.600,47.548 91.600 C 47.357 91.600,47.221 92.905,47.247 94.500 L 47.294 97.400 47.633 95.200 C 48.233 91.311,48.919 88.650,49.871 86.526 C 50.382 85.385,50.800 84.282,50.800 84.075 C 50.800 83.867,51.070 83.474,51.400 83.200 C 52.072 82.642,52.194 82.000,51.628 82.000 C 51.423 82.000,50.617 83.276,49.837 84.836 M129.213 85.656 C 129.206 85.797,129.556 86.697,129.991 87.656 C 130.677 89.168,130.784 89.259,130.791 88.344 C 130.798 87.473,129.255 84.844,129.213 85.656 M131.147 91.901 C 131.529 92.614,131.955 98.098,132.134 104.600 L 132.200 107.000 211.400 107.200 C 273.730 107.357,290.786 107.507,291.474 107.900 C 291.954 108.175,292.674 108.402,293.074 108.405 C 293.473 108.408,294.863 108.949,296.163 109.609 C 297.463 110.268,298.592 110.742,298.671 110.662 C 299.015 110.318,295.577 108.481,293.068 107.669 L 290.336 106.785 211.568 106.796 C 161.919 106.803,132.800 106.667,132.800 106.426 C 132.800 106.217,133.192 105.771,133.670 105.436 L 134.541 104.826 133.655 104.499 C 132.825 104.192,132.758 103.873,132.575 99.386 C 132.345 93.711,131.990 91.530,131.260 91.287 C 130.841 91.147,130.816 91.282,131.147 91.901 M46.983 114.000 C 46.983 123.130,47.035 126.865,47.100 122.300 C 47.164 117.735,47.164 110.265,47.100 105.700 C 47.035 101.135,46.983 104.870,46.983 114.000 M139.400 104.827 C 138.299 105.082,138.340 105.109,139.900 105.153 C 141.596 105.200,142.047 105.036,141.100 104.718 C 140.825 104.625,140.060 104.675,139.400 104.827 M312.523 108.447 C 312.225 108.809,312.179 109.243,312.401 109.602 C 312.876 110.370,313.297 109.889,313.132 108.768 C 313.021 108.009,312.925 107.959,312.523 108.447 M299.795 111.285 C 300.728 111.826,300.699 111.804,303.800 114.350 C 307.730 117.577,309.630 119.892,312.011 124.361 C 312.756 125.759,313.433 126.702,313.514 126.457 C 313.596 126.212,313.315 125.514,312.890 124.906 C 312.465 124.298,312.008 123.348,311.875 122.796 C 311.742 122.244,310.996 121.096,310.217 120.246 C 309.437 119.395,308.800 118.464,308.800 118.177 C 308.800 117.889,308.458 117.545,308.040 117.413 C 307.622 117.280,307.169 116.731,307.034 116.193 C 306.899 115.655,306.296 114.957,305.694 114.643 C 305.092 114.329,304.071 113.515,303.425 112.836 C 302.779 112.156,301.935 111.600,301.549 111.600 C 301.163 111.600,300.736 111.420,300.600 111.200 C 300.464 110.980,300.048 110.805,299.676 110.812 C 299.107 110.822,299.125 110.897,299.795 111.285 M313.604 127.806 C 313.602 128.249,313.933 129.239,314.339 130.006 C 315.959 133.062,316.990 140.044,316.484 144.532 C 316.231 146.770,315.910 150.622,315.769 153.093 L 315.513 157.587 316.657 158.031 C 317.315 158.286,318.818 158.378,320.200 158.247 C 328.036 157.507,337.412 159.348,341.400 162.410 C 344.413 164.724,349.600 170.015,349.600 170.775 C 349.600 170.926,349.960 171.795,350.400 172.706 C 350.840 173.616,351.200 174.561,351.200 174.806 C 351.200 175.664,352.547 179.358,352.697 178.909 C 352.912 178.265,350.122 170.286,349.509 169.792 C 349.229 169.566,348.803 169.026,348.562 168.591 C 347.570 166.799,339.687 160.105,338.252 159.836 C 337.472 159.690,336.040 159.219,335.069 158.789 C 333.556 158.120,332.110 157.982,324.995 157.827 C 320.425 157.728,316.518 157.478,316.311 157.271 C 316.077 157.037,316.110 154.733,316.400 151.148 C 317.340 139.524,317.344 137.630,316.431 135.037 C 315.974 133.738,315.600 132.361,315.600 131.977 C 315.600 131.593,315.152 130.317,314.604 129.140 C 314.040 127.928,313.606 127.350,313.604 127.806 M114.800 139.620 C 111.870 139.974,109.834 140.734,108.148 142.102 C 107.517 142.615,106.505 143.346,105.900 143.726 C 105.295 144.107,104.800 144.607,104.800 144.838 C 104.800 145.069,105.274 144.885,105.854 144.429 C 106.434 143.973,107.189 143.600,107.532 143.600 C 107.875 143.600,108.616 143.177,109.178 142.660 C 110.561 141.388,113.250 140.400,115.328 140.400 C 116.270 140.400,117.220 140.220,117.439 140.001 C 117.701 139.739,146.767 139.567,202.219 139.500 L 286.600 139.398 202.000 139.352 C 155.470 139.326,116.230 139.447,114.800 139.620 M287.084 140.400 C 287.227 140.947,287.630 141.200,288.358 141.200 C 290.014 141.200,290.984 142.147,291.808 144.570 C 292.603 146.909,293.000 147.226,293.788 146.149 C 294.694 144.910,296.109 148.797,296.317 153.092 L 296.495 156.784 295.421 157.192 C 294.703 157.465,263.862 157.600,202.132 157.600 C 120.478 157.600,109.644 157.670,107.543 158.215 C 104.980 158.879,104.400 158.766,104.400 157.600 C 104.400 157.186,104.220 156.736,104.000 156.600 C 103.399 156.229,103.553 150.429,104.212 148.600 C 104.529 147.720,104.781 146.640,104.772 146.200 C 104.764 145.760,104.406 146.480,103.978 147.800 C 103.363 149.695,103.220 151.125,103.300 154.600 L 103.400 159.000 105.000 158.977 C 105.880 158.964,108.031 158.735,109.781 158.469 C 112.201 158.101,134.799 157.991,204.322 158.008 C 276.683 158.025,295.807 157.926,296.282 157.532 C 297.848 156.232,295.906 144.003,294.133 144.001 C 293.876 144.000,292.923 143.287,292.016 142.415 C 291.032 141.470,289.807 140.725,288.983 140.570 C 288.222 140.428,287.600 140.151,287.600 139.955 C 287.600 139.760,287.437 139.600,287.237 139.600 C 287.038 139.600,286.969 139.960,287.084 140.400 M320.493 142.000 C 320.493 142.770,320.575 143.085,320.676 142.700 C 320.776 142.315,320.776 141.685,320.676 141.300 C 320.575 140.915,320.493 141.230,320.493 142.000 M46.996 215.200 C 46.996 254.910,47.043 271.155,47.100 251.300 C 47.157 231.445,47.157 198.955,47.100 179.100 C 47.043 159.245,46.996 175.490,46.996 215.200 M287.640 145.700 C 287.674 147.144,287.728 147.250,288.000 146.400 C 288.461 144.961,288.461 144.000,288.000 144.000 C 287.780 144.000,287.618 144.765,287.640 145.700 M293.078 153.974 C 292.816 156.186,292.983 156.981,293.628 156.583 C 294.068 156.311,294.075 153.734,293.637 152.617 C 293.412 152.041,293.264 152.401,293.078 153.974 M289.200 154.721 C 289.200 156.303,289.327 156.726,289.752 156.563 C 290.185 156.397,290.223 155.992,289.930 154.687 C 289.403 152.340,289.200 152.349,289.200 154.721 M348.000 163.137 C 348.000 163.759,349.102 164.482,349.376 164.039 C 349.511 163.820,349.257 163.445,348.811 163.206 C 348.365 162.967,348.000 162.936,348.000 163.137 M352.272 189.400 C 352.096 190.280,351.795 191.540,351.604 192.200 C 350.522 195.932,350.441 196.464,351.030 195.975 C 351.344 195.715,351.600 195.078,351.600 194.559 C 351.600 194.041,351.883 192.910,352.228 192.046 C 352.574 191.183,352.797 189.874,352.724 189.138 L 352.593 187.800 352.272 189.400 M349.736 199.200 C 349.480 200.190,348.895 202.259,348.436 203.799 C 347.976 205.338,347.600 206.990,347.600 207.470 C 347.600 207.950,347.330 208.613,347.000 208.943 C 346.670 209.273,346.398 210.141,346.395 210.871 C 346.393 211.602,345.853 213.984,345.195 216.165 C 344.538 218.346,344.000 220.521,344.000 220.998 C 344.000 221.476,343.865 222.002,343.700 222.166 C 343.535 222.331,343.193 223.306,342.940 224.333 C 342.687 225.360,341.907 228.180,341.206 230.600 C 340.506 233.020,339.848 235.540,339.744 236.200 C 339.510 237.698,336.627 248.546,335.579 251.875 C 335.151 253.236,334.816 254.676,334.836 255.075 C 334.878 255.907,336.193 252.059,336.980 248.800 C 337.272 247.590,338.067 244.620,338.746 242.200 C 339.426 239.780,339.986 237.220,339.991 236.511 C 339.999 235.404,340.183 235.170,341.300 234.848 C 342.015 234.641,342.375 234.456,342.100 234.436 C 341.257 234.375,341.519 230.674,342.600 227.361 C 343.150 225.676,343.600 223.981,343.600 223.595 C 343.600 223.208,343.869 222.376,344.198 221.746 C 344.526 221.116,344.796 220.223,344.798 219.761 C 344.799 219.300,345.078 218.366,345.418 217.685 C 345.757 217.004,346.305 214.951,346.636 213.124 C 346.966 211.296,347.394 209.440,347.586 209.000 C 347.779 208.560,348.033 207.504,348.151 206.653 C 348.268 205.803,348.832 204.213,349.403 203.121 C 350.181 201.633,350.411 200.668,350.321 199.268 L 350.200 197.400 349.736 199.200 M349.600 210.200 C 349.600 210.750,349.669 211.200,349.753 211.200 C 349.838 211.200,349.993 210.750,350.098 210.200 C 350.203 209.650,350.134 209.200,349.945 209.200 C 349.755 209.200,349.600 209.650,349.600 210.200 M345.291 227.474 C 344.692 228.539,344.653 229.600,345.213 229.600 C 345.771 229.600,346.094 228.659,345.923 227.529 L 345.782 226.600 345.291 227.474 M347.673 232.487 C 347.114 233.046,347.044 234.656,347.564 234.978 C 348.475 235.541,349.130 234.751,348.776 233.517 C 348.336 231.980,348.255 231.905,347.673 232.487 M333.476 259.414 C 332.884 261.282,332.400 263.214,332.400 263.707 C 332.400 264.200,331.860 266.312,331.200 268.400 C 330.540 270.488,330.000 272.591,330.000 273.075 C 330.000 273.558,329.820 274.064,329.600 274.200 C 329.380 274.336,329.200 274.615,329.200 274.820 C 329.200 275.025,329.560 274.884,330.000 274.507 C 330.440 274.130,330.800 273.337,330.800 272.744 C 330.800 272.151,331.155 270.839,331.588 269.827 C 332.022 268.816,332.553 266.578,332.770 264.854 C 332.986 263.130,333.332 261.288,333.540 260.760 C 334.262 258.922,334.928 256.395,334.740 256.207 C 334.636 256.103,334.067 257.546,333.476 259.414 M336.656 271.078 C 336.035 271.699,336.400 274.000,337.120 274.000 C 337.707 274.000,337.809 273.742,337.675 272.596 C 337.510 271.180,337.126 270.607,336.656 271.078 M328.613 277.600 C 328.445 278.590,327.969 280.300,327.554 281.400 C 326.593 283.949,326.609 285.029,327.579 283.194 C 328.403 281.637,329.395 277.173,329.104 276.335 C 329.002 276.041,328.781 276.610,328.613 277.600 M326.148 287.111 C 325.901 287.507,325.571 288.634,325.416 289.615 C 325.260 290.597,324.721 292.750,324.217 294.400 C 323.076 298.141,322.624 300.556,323.121 300.249 C 323.326 300.122,323.581 299.242,323.688 298.293 C 323.795 297.344,324.157 295.945,324.491 295.184 C 325.174 293.631,326.000 290.027,326.000 288.603 C 326.000 288.088,326.207 287.598,326.460 287.513 C 326.713 287.429,326.847 287.142,326.759 286.876 C 326.653 286.558,326.443 286.639,326.148 287.111 M46.924 298.200 C 46.926 299.520,47.001 300.012,47.090 299.293 C 47.179 298.574,47.177 297.494,47.086 296.893 C 46.995 296.292,46.922 296.880,46.924 298.200 M321.208 305.073 C 320.442 307.453,319.498 309.940,319.109 310.600 C 318.721 311.260,318.403 312.070,318.403 312.400 C 318.403 313.489,320.075 310.282,320.641 308.106 C 320.947 306.932,321.571 305.466,322.027 304.850 C 322.601 304.072,322.817 303.270,322.728 302.237 C 322.614 300.908,322.449 301.215,321.208 305.073 M47.250 311.076 C 47.222 312.438,47.380 313.664,47.600 313.800 C 47.820 313.936,48.000 314.455,48.000 314.952 C 48.000 316.656,49.287 319.635,50.644 321.074 C 51.390 321.865,52.000 322.752,52.000 323.046 C 52.000 323.339,52.540 323.859,53.200 324.200 C 53.860 324.541,54.400 325.064,54.400 325.361 C 54.400 326.040,55.431 326.923,56.001 326.733 C 56.237 326.654,55.433 325.561,54.215 324.304 C 52.997 323.046,52.000 321.752,52.000 321.428 C 52.000 321.105,51.771 320.696,51.490 320.520 C 50.149 319.678,48.197 314.728,47.601 310.655 L 47.300 308.600 47.250 311.076 M317.707 313.690 C 317.483 313.971,317.022 314.740,316.681 315.400 C 315.558 317.580,306.981 325.800,304.778 326.808 C 303.372 327.451,301.293 328.626,300.705 329.109 C 300.427 329.337,299.840 329.609,299.400 329.713 C 298.960 329.817,299.483 329.824,300.563 329.729 C 302.929 329.520,304.653 328.695,304.999 327.604 C 305.139 327.162,305.485 326.800,305.768 326.800 C 306.051 326.800,307.866 325.315,309.801 323.500 C 311.736 321.685,314.124 319.480,315.108 318.600 C 316.091 317.720,317.239 316.210,317.658 315.243 C 318.429 313.465,318.452 312.758,317.707 313.690 M56.873 327.482 C 57.080 328.559,59.992 330.320,62.400 330.825 C 63.610 331.079,64.853 331.492,65.161 331.743 C 65.811 332.272,286.866 332.622,290.987 332.102 C 292.299 331.936,242.259 331.800,179.787 331.800 L 66.200 331.800 64.615 330.900 C 63.744 330.405,62.833 330.000,62.591 330.000 C 61.791 330.000,59.004 328.488,58.233 327.637 C 57.317 326.624,56.694 326.553,56.873 327.482 M295.000 330.800 C 293.853 331.331,293.636 331.549,294.233 331.570 C 294.692 331.587,295.200 331.465,295.362 331.300 C 295.524 331.135,296.229 330.789,296.929 330.530 C 297.776 330.217,297.933 330.061,297.400 330.060 C 296.960 330.060,295.880 330.393,295.000 330.800 " stroke="none" fill="#fbf8ce" fill-rule="evenodd"></path></g></svg>