<svg id="svg" version="1.1" xmlns="http://www.w3.org/2000/svg" xmlns:xlink="http://www.w3.org/1999/xlink" width="400" height="400" viewBox="0, 0, 400,400"><g id="svgg"><path id="path0" d="M74.000 98.000 C 73.467 98.345,73.467 98.392,74.000 98.428 C 74.330 98.451,74.060 98.630,73.400 98.827 C 72.672 99.045,72.150 99.040,72.074 98.814 C 71.999 98.594,71.552 98.621,70.986 98.879 C 70.458 99.120,70.139 99.501,70.278 99.726 C 70.432 99.975,70.269 100.035,69.866 99.881 C 69.500 99.740,69.200 99.808,69.200 100.032 C 69.200 100.256,68.686 100.655,68.057 100.919 C 67.428 101.184,66.851 101.580,66.775 101.800 C 66.699 102.020,65.998 102.740,65.218 103.400 C 63.187 105.119,61.657 106.724,61.857 106.924 C 62.138 107.205,61.110 109.192,60.787 108.992 C 60.496 108.812,59.304 109.989,59.500 110.261 C 59.829 110.717,59.531 111.605,59.132 111.358 C 58.817 111.164,58.748 111.287,58.919 111.734 C 59.071 112.130,58.977 112.402,58.687 112.406 C 58.336 112.411,58.326 112.495,58.652 112.706 C 59.214 113.072,59.039 115.720,58.440 115.920 C 57.890 116.103,57.855 117.600,58.400 117.600 C 58.666 117.600,58.800 157.867,58.800 237.600 C 58.800 303.600,58.947 357.600,59.127 357.600 C 59.492 357.600,79.999 336.971,100.381 316.100 L 113.761 302.400 140.680 302.400 C 155.486 302.400,167.600 302.342,167.600 302.272 C 167.600 302.202,155.795 290.328,141.367 275.887 C 126.939 261.446,115.248 249.446,115.388 249.220 C 115.534 248.983,115.398 248.902,115.069 249.029 C 114.733 249.158,114.103 248.758,113.548 248.066 C 113.027 247.415,111.250 245.810,109.600 244.500 C 101.166 237.801,101.123 237.695,102.209 225.975 C 105.149 194.246,115.430 158.463,126.716 140.676 C 131.220 133.578,155.499 122.595,170.269 120.975 L 172.738 120.704 173.769 122.739 C 174.336 123.858,174.800 124.926,174.800 125.113 C 174.800 125.300,172.595 126.055,169.900 126.790 C 158.768 129.828,148.996 134.768,139.388 142.216 C 134.500 146.005,134.640 146.225,140.247 143.567 C 180.209 124.627,219.771 124.582,258.104 143.432 C 261.351 145.029,263.905 146.171,263.781 145.969 C 263.358 145.284,255.814 139.394,253.000 137.552 C 246.158 133.073,237.620 129.260,229.355 126.995 C 223.101 125.281,223.429 125.568,224.712 122.938 L 225.800 120.708 228.555 120.962 C 242.706 122.265,267.953 133.807,271.874 140.764 C 273.175 143.074,274.144 144.220,273.173 142.300 C 272.922 141.805,287.676 156.340,305.959 174.599 L 339.200 207.798 339.200 247.366 C 339.200 269.128,339.292 286.842,339.404 286.729 C 339.602 286.532,339.777 258.885,340.202 160.499 C 340.355 125.092,340.291 113.223,339.949 113.299 C 339.697 113.355,339.351 112.904,339.179 112.297 C 338.996 111.649,339.019 111.288,339.234 111.421 C 339.435 111.545,339.600 111.377,339.600 111.047 C 339.600 110.248,338.928 109.864,338.638 110.498 C 338.511 110.774,338.515 110.572,338.647 110.050 C 338.801 109.436,338.736 109.192,338.464 109.361 C 338.206 109.520,338.102 109.306,338.198 108.811 C 338.291 108.328,338.141 108.000,337.827 108.000 C 337.537 108.000,337.012 107.415,336.659 106.700 C 336.307 105.985,336.013 105.580,336.008 105.800 C 336.002 106.020,335.663 105.660,335.255 105.000 C 334.847 104.340,333.772 103.350,332.865 102.800 C 331.922 102.228,331.297 101.577,331.404 101.279 C 331.507 100.993,331.413 100.868,331.195 101.003 C 330.978 101.137,330.797 100.922,330.794 100.524 C 330.790 100.086,330.672 99.972,330.494 100.236 C 330.293 100.534,329.570 100.384,328.200 99.760 C 326.118 98.812,325.920 98.488,327.874 99.225 C 328.643 99.515,328.869 99.518,328.587 99.232 C 327.995 98.633,324.400 97.608,324.400 98.039 C 324.400 98.253,273.498 98.400,199.576 98.400 C 116.463 98.400,74.835 98.266,75.000 98.000 C 75.313 97.494,74.783 97.494,74.000 98.000 M137.732 97.900 C 172.015 97.956,227.995 97.956,262.132 97.900 C 296.270 97.844,268.220 97.797,199.800 97.797 C 131.380 97.797,103.450 97.844,137.732 97.900 M327.672 101.066 C 330.603 102.455,333.712 105.075,334.686 106.979 C 335.224 108.030,334.997 107.905,333.059 106.081 C 331.820 104.915,329.668 103.428,328.276 102.777 L 325.745 101.593 199.388 101.598 L 73.031 101.604 70.512 102.782 C 69.127 103.431,66.980 104.915,65.741 106.081 C 63.803 107.905,63.576 108.030,64.114 106.979 C 65.433 104.401,69.536 101.388,73.400 100.160 C 74.682 99.752,99.809 99.666,200.000 99.725 L 325.000 99.800 327.672 101.066 M279.228 155.400 C 279.228 155.620,279.486 156.250,279.800 156.800 C 280.114 157.350,280.372 157.620,280.372 157.400 C 280.372 157.180,280.114 156.550,279.800 156.000 C 279.486 155.450,279.228 155.180,279.228 155.400 M169.500 183.482 C 169.995 183.578,170.805 183.578,171.300 183.482 C 171.795 183.387,171.390 183.309,170.400 183.309 C 169.410 183.309,169.005 183.387,169.500 183.482 M227.305 183.487 C 227.914 183.579,228.814 183.577,229.305 183.482 C 229.797 183.387,229.300 183.311,228.200 183.314 C 227.100 183.317,226.697 183.395,227.305 183.487 M243.340 200.800 C 243.340 202.670,243.409 203.435,243.493 202.500 C 243.577 201.565,243.577 200.035,243.493 199.100 C 243.409 198.165,243.340 198.930,243.340 200.800 M212.928 200.800 C 212.928 202.230,213.001 202.815,213.089 202.100 C 213.178 201.385,213.178 200.215,213.089 199.500 C 213.001 198.785,212.928 199.370,212.928 200.800 M185.701 201.000 C 185.705 201.880,185.787 202.193,185.883 201.695 C 185.979 201.198,185.975 200.478,185.875 200.095 C 185.775 199.713,185.696 200.120,185.701 201.000 M237.978 214.300 L 236.600 215.800 238.100 214.422 C 239.496 213.138,239.784 212.800,239.478 212.800 C 239.412 212.800,238.737 213.475,237.978 214.300 M295.693 218.800 C 295.693 219.570,295.775 219.885,295.876 219.500 C 295.976 219.115,295.976 218.485,295.876 218.100 C 295.775 217.715,295.693 218.030,295.693 218.800 M296.093 222.400 C 296.093 223.170,296.175 223.485,296.276 223.100 C 296.376 222.715,296.376 222.085,296.276 221.700 C 296.175 221.315,296.093 221.630,296.093 222.400 M296.493 226.400 C 296.493 227.170,296.575 227.485,296.676 227.100 C 296.776 226.715,296.776 226.085,296.676 225.700 C 296.575 225.315,296.493 225.630,296.493 226.400 M296.893 231.200 C 296.893 231.970,296.975 232.285,297.076 231.900 C 297.176 231.515,297.176 230.885,297.076 230.500 C 296.975 230.115,296.893 230.430,296.893 231.200 M132.297 230.869 C 132.570 231.201,132.705 231.561,132.598 231.669 C 132.491 231.776,132.897 232.299,133.502 232.832 L 134.600 233.800 133.630 232.700 C 132.536 231.459,132.755 231.290,134.214 232.246 C 134.756 232.601,135.200 232.805,135.200 232.699 C 135.200 232.593,134.435 232.002,133.500 231.385 C 132.565 230.768,132.023 230.536,132.297 230.869 M266.159 230.867 C 266.045 231.050,266.092 231.200,266.261 231.200 C 266.431 231.200,265.677 232.145,264.586 233.300 C 262.771 235.221,262.815 235.196,265.101 233.013 C 266.475 231.699,267.600 230.604,267.600 230.579 C 267.600 230.355,266.317 230.611,266.159 230.867 M134.800 234.125 C 134.800 234.194,135.385 234.779,136.100 235.425 L 137.400 236.600 136.225 235.300 C 135.130 234.088,134.800 233.816,134.800 234.125 M260.575 236.900 L 259.400 238.200 260.700 237.025 C 261.415 236.379,262.000 235.794,262.000 235.725 C 262.000 235.416,261.670 235.688,260.575 236.900 M295.200 238.600 C 294.228 239.590,293.523 240.400,293.633 240.400 C 293.743 240.400,294.628 239.590,295.600 238.600 C 296.572 237.610,297.277 236.800,297.167 236.800 C 297.057 236.800,296.172 237.610,295.200 238.600 M291.578 242.300 L 290.200 243.800 291.700 242.422 C 293.096 241.138,293.384 240.800,293.078 240.800 C 293.012 240.800,292.337 241.475,291.578 242.300 M251.300 243.646 C 249.937 244.519,249.495 245.106,250.700 244.443 C 251.618 243.939,253.056 242.827,252.800 242.819 C 252.690 242.816,252.015 243.188,251.300 243.646 M245.100 247.227 C 244.275 247.663,243.600 248.108,243.600 248.218 C 243.600 248.327,244.320 248.049,245.200 247.600 C 246.080 247.151,246.800 246.697,246.800 246.592 C 246.800 246.330,246.797 246.331,245.100 247.227 M190.307 249.890 C 191.026 249.979,192.106 249.977,192.707 249.886 C 193.308 249.795,192.720 249.722,191.400 249.724 C 190.080 249.726,189.588 249.801,190.307 249.890 M206.307 249.890 C 207.026 249.979,208.106 249.977,208.707 249.886 C 209.308 249.795,208.720 249.722,207.400 249.724 C 206.080 249.726,205.588 249.801,206.307 249.890 M275.100 253.627 C 274.275 254.063,273.600 254.508,273.600 254.618 C 273.600 254.727,274.320 254.449,275.200 254.000 C 276.080 253.551,276.800 253.097,276.800 252.992 C 276.800 252.730,276.797 252.731,275.100 253.627 M163.375 257.868 C 162.759 258.676,162.459 259.211,162.709 259.056 C 163.221 258.740,164.953 256.400,164.675 256.400 C 164.576 256.400,163.991 257.061,163.375 257.868 M266.800 257.400 C 266.250 257.714,265.980 257.972,266.200 257.972 C 266.420 257.972,267.050 257.714,267.600 257.400 C 268.150 257.086,268.420 256.828,268.200 256.828 C 267.980 256.828,267.350 257.086,266.800 257.400 M238.749 262.900 C 239.051 263.285,239.681 263.579,240.149 263.554 C 240.957 263.510,240.960 263.497,240.200 263.311 C 239.760 263.202,239.130 262.908,238.800 262.657 C 238.278 262.260,238.272 262.291,238.749 262.900 " stroke="none" fill="#6a82cc" fill-rule="evenodd"></path><path id="path1" d="M72.800 100.774 C 71.287 101.236,68.605 102.671,68.086 103.296 C 67.833 103.601,68.738 103.299,70.098 102.625 L 72.570 101.400 198.785 101.291 L 325.000 101.182 327.400 102.039 C 328.720 102.511,329.989 103.010,330.219 103.148 C 330.449 103.287,330.218 103.028,329.705 102.574 C 327.057 100.229,337.028 100.393,199.400 100.432 C 130.320 100.452,73.350 100.606,72.800 100.774 M166.600 121.994 C 155.099 124.316,145.309 128.085,135.788 133.854 C 129.176 137.861,128.367 138.589,126.136 142.544 C 113.356 165.198,104.579 198.253,101.859 233.971 L 101.663 236.543 105.141 239.984 C 117.103 251.822,133.564 259.632,151.914 262.174 C 159.564 263.235,158.907 263.457,162.517 258.585 C 166.572 253.111,166.543 253.581,162.907 252.243 C 152.476 248.407,140.536 240.497,131.821 231.651 C 128.569 228.349,127.962 226.978,130.682 229.074 C 164.945 255.484,227.096 256.532,264.709 231.335 C 270.651 227.354,271.184 227.379,267.178 231.451 C 258.276 240.499,246.115 248.492,235.300 252.403 C 232.187 253.529,232.152 253.264,236.082 258.460 C 239.809 263.390,239.349 263.197,245.471 262.385 C 264.474 259.862,280.661 252.402,292.764 240.591 L 296.928 236.527 296.238 228.564 C 293.406 195.852,285.358 166.300,273.070 143.494 C 270.466 138.661,269.730 137.977,262.443 133.625 C 252.331 127.587,242.600 123.856,231.656 121.822 C 226.353 120.836,226.107 120.883,225.171 123.067 C 224.352 124.979,224.533 125.578,225.937 125.594 C 227.575 125.613,240.545 130.346,245.012 132.555 C 251.822 135.923,266.740 146.620,265.298 147.101 C 265.109 147.164,261.574 145.579,257.444 143.579 C 218.363 124.654,175.230 125.332,137.382 145.466 C 132.556 148.034,132.439 147.446,137.021 143.653 C 147.378 135.078,161.894 127.737,173.100 125.407 C 174.644 125.086,174.614 125.261,173.520 123.011 C 172.487 120.885,172.260 120.851,166.600 121.994 M174.027 183.444 C 186.556 187.155,190.428 204.881,180.772 214.318 C 170.385 224.470,154.800 216.256,154.800 200.629 C 154.800 189.375,164.571 180.642,174.027 183.444 M234.278 184.408 C 241.657 188.041,245.596 197.304,243.380 205.814 C 239.422 221.007,221.237 223.375,214.504 209.574 C 207.308 194.824,220.732 177.740,234.278 184.408 " stroke="none" fill="#fbfbfb" fill-rule="evenodd"></path><path id="path2" d="M136.732 100.300 C 171.345 100.356,227.865 100.356,262.332 100.300 C 296.800 100.244,268.480 100.197,199.400 100.197 C 130.320 100.197,102.120 100.244,136.732 100.300 M67.197 103.717 C 65.009 105.719,64.346 106.757,66.100 105.435 C 66.925 104.814,67.600 104.146,67.600 103.953 C 67.600 103.759,67.801 103.645,68.047 103.700 C 68.293 103.755,68.547 103.485,68.611 103.100 C 68.676 102.715,68.700 102.407,68.665 102.417 C 68.629 102.426,67.969 103.011,67.197 103.717 M329.600 102.796 C 329.057 103.151,329.277 103.281,330.236 103.173 C 330.366 103.159,330.702 103.460,330.981 103.842 C 331.261 104.224,331.801 104.583,332.181 104.638 C 332.562 104.694,332.752 104.618,332.603 104.470 C 332.455 104.321,332.189 104.200,332.012 104.200 C 331.835 104.200,331.355 103.796,330.945 103.302 C 330.395 102.639,330.043 102.507,329.600 102.796 M224.460 123.828 C 223.961 124.923,224.140 125.604,224.924 125.594 C 225.243 125.590,225.222 125.475,224.859 125.245 C 224.428 124.972,224.415 124.720,224.791 124.017 C 225.052 123.530,225.189 123.056,225.097 122.964 C 225.005 122.872,224.718 123.261,224.460 123.828 M197.911 129.893 C 198.851 129.978,200.291 129.977,201.111 129.891 C 201.930 129.805,201.160 129.736,199.400 129.737 C 197.640 129.739,196.970 129.809,197.911 129.893 M189.107 130.290 C 189.826 130.379,190.906 130.377,191.507 130.286 C 192.108 130.195,191.520 130.122,190.200 130.124 C 188.880 130.126,188.388 130.201,189.107 130.290 M207.100 130.289 C 207.815 130.378,208.985 130.378,209.700 130.289 C 210.415 130.201,209.830 130.128,208.400 130.128 C 206.970 130.128,206.385 130.201,207.100 130.289 M184.305 130.683 C 184.802 130.779,185.522 130.775,185.905 130.675 C 186.287 130.575,185.880 130.496,185.000 130.501 C 184.120 130.505,183.807 130.587,184.305 130.683 M213.105 130.683 C 213.602 130.779,214.322 130.775,214.705 130.675 C 215.087 130.575,214.680 130.496,213.800 130.501 C 212.920 130.505,212.607 130.587,213.105 130.683 M252.800 141.400 C 253.350 141.714,253.980 141.972,254.200 141.972 C 254.420 141.972,254.150 141.714,253.600 141.400 C 253.050 141.086,252.420 140.828,252.200 140.828 C 251.980 140.828,252.250 141.086,252.800 141.400 M137.100 145.226 C 135.835 145.879,134.800 146.503,134.800 146.612 C 134.800 146.722,135.880 146.266,137.200 145.600 C 138.520 144.934,139.600 144.301,139.600 144.194 C 139.600 143.928,139.674 143.897,137.100 145.226 M134.200 146.000 C 133.221 147.022,133.161 147.200,133.792 147.200 C 134.200 147.200,134.412 147.078,134.263 146.930 C 134.114 146.781,134.386 146.241,134.866 145.730 C 135.346 145.218,135.652 144.800,135.545 144.800 C 135.437 144.800,134.832 145.340,134.200 146.000 M264.348 146.137 C 264.593 146.432,264.675 146.792,264.530 146.937 C 264.385 147.082,264.595 147.200,264.995 147.200 C 265.699 147.200,265.699 147.172,265.000 146.400 C 264.196 145.512,263.644 145.289,264.348 146.137 M169.705 183.087 C 170.314 183.179,171.214 183.177,171.705 183.082 C 172.197 182.987,171.700 182.911,170.600 182.914 C 169.500 182.917,169.097 182.995,169.705 183.087 M227.305 183.087 C 227.914 183.179,228.814 183.177,229.305 183.082 C 229.797 182.987,229.300 182.911,228.200 182.914 C 227.100 182.917,226.697 182.995,227.305 183.087 M160.175 187.300 L 159.000 188.600 160.300 187.425 C 161.015 186.779,161.600 186.194,161.600 186.125 C 161.600 185.816,161.270 186.088,160.175 187.300 M212.531 201.000 C 212.533 202.540,212.605 203.121,212.692 202.291 C 212.779 201.461,212.777 200.201,212.689 199.491 C 212.600 198.781,212.529 199.460,212.531 201.000 M186.109 200.800 C 186.109 201.790,186.187 202.195,186.282 201.700 C 186.378 201.205,186.378 200.395,186.282 199.900 C 186.187 199.405,186.109 199.810,186.109 200.800 M217.600 214.200 C 218.346 214.970,219.047 215.600,219.157 215.600 C 219.267 215.600,218.746 214.970,218.000 214.200 C 217.254 213.430,216.553 212.800,216.443 212.800 C 216.333 212.800,216.854 213.430,217.600 214.200 M102.893 220.800 C 102.893 221.570,102.975 221.885,103.076 221.500 C 103.176 221.115,103.176 220.485,103.076 220.100 C 102.975 219.715,102.893 220.030,102.893 220.800 M296.093 226.800 C 296.093 227.570,296.175 227.885,296.276 227.500 C 296.376 227.115,296.376 226.485,296.276 226.100 C 296.175 225.715,296.093 226.030,296.093 226.800 M128.860 228.380 C 128.948 228.644,129.151 228.847,129.310 228.830 C 129.788 228.781,129.696 228.232,129.180 228.060 C 128.916 227.972,128.772 228.116,128.860 228.380 M269.000 228.400 C 268.864 228.620,268.895 228.800,269.068 228.800 C 269.242 228.800,267.678 230.555,265.592 232.700 L 261.800 236.600 265.900 232.608 C 268.155 230.412,270.000 228.477,270.000 228.308 C 270.000 227.864,269.291 227.929,269.000 228.400 M296.509 231.200 C 296.509 232.190,296.587 232.595,296.682 232.100 C 296.778 231.605,296.778 230.795,296.682 230.300 C 296.587 229.805,296.509 230.210,296.509 231.200 M101.693 234.000 C 101.693 234.770,101.775 235.085,101.876 234.700 C 101.976 234.315,101.976 233.685,101.876 233.300 C 101.775 232.915,101.693 233.230,101.693 234.000 M134.800 234.525 C 134.800 234.594,135.385 235.179,136.100 235.825 L 137.400 237.000 136.225 235.700 C 135.130 234.488,134.800 234.216,134.800 234.525 M293.588 239.900 L 291.000 242.600 293.700 240.012 C 295.185 238.588,296.400 237.373,296.400 237.312 C 296.400 237.017,295.993 237.392,293.588 239.900 M107.200 242.125 C 107.200 242.194,107.785 242.779,108.500 243.425 L 109.800 244.600 108.625 243.300 C 107.530 242.088,107.200 241.816,107.200 242.125 M189.905 249.483 C 190.402 249.579,191.122 249.575,191.505 249.475 C 191.887 249.375,191.480 249.296,190.600 249.301 C 189.720 249.305,189.407 249.387,189.905 249.483 M207.505 249.483 C 208.002 249.579,208.722 249.575,209.105 249.475 C 209.487 249.375,209.080 249.296,208.200 249.301 C 207.320 249.305,207.007 249.387,207.505 249.483 M157.300 263.076 C 157.685 263.176,158.315 263.176,158.700 263.076 C 159.085 262.975,158.770 262.893,158.000 262.893 C 157.230 262.893,156.915 262.975,157.300 263.076 " stroke="none" fill="#bcc4ea" fill-rule="evenodd"></path><path id="path3" d="M196.814 81.174 C 196.265 82.199,196.291 82.400,196.971 82.400 C 197.612 82.400,198.800 81.342,198.800 80.771 C 198.800 80.078,197.230 80.396,196.814 81.174 M74.868 97.401 C 75.196 97.729,324.400 97.828,324.400 97.500 C 324.400 97.335,268.210 97.200,199.533 97.200 C 130.857 97.200,74.757 97.291,74.868 97.401 M72.700 98.303 C 72.315 98.389,72.000 98.629,72.000 98.837 C 72.000 99.144,73.878 98.946,74.317 98.593 C 74.582 98.380,73.349 98.159,72.700 98.303 M328.200 99.737 C 329.300 100.258,330.278 100.617,330.373 100.535 C 330.687 100.267,329.759 99.585,328.839 99.407 C 328.342 99.312,327.545 99.134,327.068 99.012 C 326.591 98.890,327.100 99.217,328.200 99.737 M67.994 100.418 C 67.447 100.839,67.191 101.186,67.424 101.191 C 68.002 101.203,69.448 100.115,69.193 99.860 C 69.080 99.747,68.541 99.998,67.994 100.418 M330.812 100.600 C 330.812 101.208,331.266 101.706,332.800 102.783 L 334.200 103.766 333.566 102.805 C 333.217 102.277,332.587 101.654,332.166 101.422 C 331.745 101.190,331.268 100.820,331.106 100.600 C 330.910 100.333,330.812 100.333,330.812 100.600 M65.784 102.027 C 65.348 102.732,65.807 102.830,66.629 102.209 C 67.306 101.697,67.317 101.624,66.724 101.613 C 66.352 101.606,65.929 101.792,65.784 102.027 M62.689 105.205 C 61.926 106.096,61.784 106.581,62.398 106.201 C 62.790 105.959,63.746 104.400,63.503 104.400 C 63.434 104.400,63.068 104.762,62.689 105.205 M336.426 106.000 C 336.425 106.642,337.320 108.000,337.744 108.000 C 338.227 108.000,337.999 107.287,337.213 106.344 C 336.667 105.688,336.426 105.583,336.426 106.000 M61.200 107.367 C 61.200 107.678,60.988 108.004,60.729 108.090 C 60.448 108.184,60.390 108.460,60.586 108.778 C 60.835 109.180,61.042 109.077,61.443 108.354 C 62.086 107.193,62.126 106.800,61.600 106.800 C 61.380 106.800,61.200 107.055,61.200 107.367 M339.384 111.983 C 339.838 112.484,339.936 112.800,339.638 112.800 C 339.371 112.800,339.266 112.983,339.404 113.207 C 339.542 113.430,339.824 113.509,340.031 113.381 C 340.388 113.160,340.347 137.263,339.803 247.163 C 339.696 268.812,339.516 286.617,339.404 286.729 C 339.292 286.842,339.200 269.128,339.200 247.366 L 339.200 207.798 305.986 174.599 L 272.773 141.400 276.405 148.886 C 287.579 171.914,295.710 204.559,297.057 231.803 L 297.315 237.006 293.000 241.126 C 279.797 253.731,261.223 261.814,241.925 263.352 L 239.250 263.565 237.725 261.525 C 236.886 260.403,235.635 258.688,234.944 257.715 C 234.253 256.742,233.289 255.521,232.801 255.001 C 231.485 253.600,231.767 253.346,237.208 251.030 C 244.980 247.721,250.583 244.537,256.800 239.899 C 259.907 237.581,267.922 230.354,267.968 229.830 C 267.986 229.627,267.595 229.835,267.100 230.293 C 264.326 232.858,253.872 238.564,246.186 241.708 C 218.563 253.009,178.765 252.797,151.247 241.203 C 144.586 238.397,133.316 232.185,131.993 230.592 C 131.723 230.266,131.307 230.000,131.069 230.000 C 130.418 230.000,138.043 236.957,142.246 240.198 C 147.098 243.939,156.850 249.332,163.200 251.786 C 167.193 253.330,167.113 253.126,164.925 256.155 C 158.958 264.416,160.092 263.617,155.000 263.150 C 141.734 261.932,126.920 256.734,116.000 249.462 C 113.445 247.761,117.050 251.520,140.300 274.803 C 155.315 289.840,167.600 302.200,167.600 302.271 C 167.600 302.342,155.486 302.400,140.680 302.400 L 113.761 302.400 100.381 316.100 C 79.999 336.971,59.492 357.600,59.127 357.600 C 58.947 357.600,58.800 303.600,58.800 237.600 C 58.800 157.867,58.666 117.600,58.400 117.600 C 58.134 117.600,58.000 157.867,58.000 237.600 C 58.000 317.333,58.134 357.600,58.400 357.600 C 58.620 357.600,58.800 358.410,58.800 359.400 C 58.800 361.773,59.039 361.704,62.603 358.300 C 68.193 352.961,71.393 349.795,70.593 350.394 C 70.157 350.720,71.863 348.920,74.383 346.394 C 76.904 343.867,79.064 341.807,79.183 341.816 C 79.303 341.825,80.215 341.015,81.211 340.016 C 82.207 339.017,82.567 338.559,82.011 338.998 C 81.455 339.437,82.800 337.914,85.000 335.614 C 90.030 330.356,92.048 328.400,92.445 328.400 C 92.616 328.400,93.555 327.419,94.532 326.220 C 95.508 325.021,96.433 324.166,96.587 324.320 C 96.741 324.474,96.807 324.406,96.733 324.170 C 96.660 323.933,100.380 319.839,105.000 315.072 L 113.400 306.406 219.576 306.403 L 325.752 306.400 328.371 305.100 C 333.014 302.795,337.272 297.833,338.775 292.974 C 339.148 291.770,339.561 290.895,339.695 291.028 C 339.828 291.162,339.882 290.771,339.815 290.160 C 339.748 289.549,339.942 288.800,340.247 288.496 C 340.911 287.832,341.092 114.420,340.431 112.681 C 340.227 112.146,339.743 111.587,339.353 111.437 C 338.697 111.186,338.699 111.226,339.384 111.983 M58.219 114.241 C 57.958 115.633,58.148 116.386,58.637 115.896 C 59.017 115.516,59.172 112.800,58.814 112.800 C 58.635 112.800,58.367 113.448,58.219 114.241 M166.159 184.167 C 155.035 187.649,151.617 204.696,160.230 213.739 C 169.513 223.486,184.760 216.560,185.507 202.257 C 186.148 189.984,176.473 180.939,166.159 184.167 M223.844 184.190 C 210.488 188.950,209.422 210.355,222.220 216.800 C 234.393 222.930,246.897 209.253,242.407 194.717 C 239.863 186.481,231.200 181.568,223.844 184.190 " stroke="none" fill="#5567ab" fill-rule="evenodd"></path><path id="path4" d="M136.868 99.900 C 171.115 99.956,227.275 99.956,261.668 99.900 C 296.060 99.844,268.040 99.797,199.400 99.797 C 130.760 99.797,102.620 99.844,136.868 99.900 M136.100 101.500 C 170.365 101.556,226.435 101.556,260.700 101.500 C 294.965 101.444,266.930 101.397,198.400 101.397 C 129.870 101.397,101.835 101.444,136.100 101.500 M333.427 106.427 C 334.271 107.292,335.020 108.000,335.091 108.000 C 335.383 108.000,333.967 105.627,333.503 105.337 C 332.105 104.463,332.065 105.033,333.427 106.427 M64.847 105.767 C 63.511 107.466,63.576 108.128,64.950 106.822 C 65.747 106.063,66.400 105.418,66.400 105.388 C 66.400 105.117,65.110 105.432,64.847 105.767 M191.911 129.893 C 192.851 129.978,194.291 129.977,195.111 129.891 C 195.930 129.805,195.160 129.736,193.400 129.737 C 191.640 129.739,190.970 129.809,191.911 129.893 M203.700 129.891 C 204.525 129.978,205.875 129.978,206.700 129.891 C 207.525 129.805,206.850 129.734,205.200 129.734 C 203.550 129.734,202.875 129.805,203.700 129.891 M186.100 130.276 C 186.485 130.376,187.115 130.376,187.500 130.276 C 187.885 130.175,187.570 130.093,186.800 130.093 C 186.030 130.093,185.715 130.175,186.100 130.276 M211.300 130.276 C 211.685 130.376,212.315 130.376,212.700 130.276 C 213.085 130.175,212.770 130.093,212.000 130.093 C 211.230 130.093,210.915 130.175,211.300 130.276 M135.000 145.600 C 134.368 146.260,134.070 146.800,134.338 146.800 C 134.606 146.800,134.928 146.531,135.054 146.202 C 135.181 145.874,135.490 145.722,135.742 145.866 C 135.994 146.010,136.067 145.981,135.903 145.801 C 135.740 145.621,135.807 145.232,136.052 144.937 C 136.884 143.935,136.155 144.394,135.000 145.600 M263.109 145.237 C 263.375 145.587,263.460 146.021,263.297 146.201 C 263.133 146.381,263.210 146.408,263.466 146.262 C 263.722 146.115,264.012 146.221,264.111 146.498 C 264.210 146.774,264.404 146.896,264.544 146.768 C 264.683 146.641,264.308 146.101,263.711 145.568 C 263.113 145.036,262.842 144.887,263.109 145.237 M238.200 187.600 C 239.059 188.480,239.852 189.200,239.962 189.200 C 240.072 189.200,239.459 188.480,238.600 187.600 C 237.741 186.720,236.948 186.000,236.838 186.000 C 236.728 186.000,237.341 186.720,238.200 187.600 M217.775 187.700 L 216.600 189.000 217.900 187.825 C 218.615 187.179,219.200 186.594,219.200 186.525 C 219.200 186.216,218.870 186.488,217.775 187.700 M154.924 201.000 C 154.926 202.320,155.001 202.812,155.090 202.093 C 155.179 201.374,155.177 200.294,155.086 199.693 C 154.995 199.092,154.922 199.680,154.924 201.000 M243.693 200.800 C 243.693 201.570,243.775 201.885,243.876 201.500 C 243.976 201.115,243.976 200.485,243.876 200.100 C 243.775 199.715,243.693 200.030,243.693 200.800 M169.500 218.682 C 169.995 218.778,170.805 218.778,171.300 218.682 C 171.795 218.587,171.390 218.509,170.400 218.509 C 169.410 218.509,169.005 218.587,169.500 218.682 M227.305 218.687 C 227.914 218.779,228.814 218.777,229.305 218.682 C 229.797 218.587,229.300 218.511,228.200 218.514 C 227.100 218.517,226.697 218.595,227.305 218.687 M129.567 229.138 C 130.144 230.217,130.754 230.570,130.635 229.757 C 130.583 229.401,130.223 228.932,129.835 228.715 C 129.216 228.369,129.183 228.421,129.567 229.138 M133.000 232.800 C 133.859 233.680,134.652 234.400,134.762 234.400 C 134.872 234.400,134.259 233.680,133.400 232.800 C 132.541 231.920,131.748 231.200,131.638 231.200 C 131.528 231.200,132.141 231.920,133.000 232.800 M296.893 233.600 C 296.893 234.370,296.975 234.685,297.076 234.300 C 297.176 233.915,297.176 233.285,297.076 232.900 C 296.975 232.515,296.893 232.830,296.893 233.600 M105.000 240.400 C 106.750 242.160,108.271 243.600,108.381 243.600 C 108.491 243.600,107.150 242.160,105.400 240.400 C 103.650 238.640,102.129 237.200,102.019 237.200 C 101.909 237.200,103.250 238.640,105.000 240.400 M187.300 249.476 C 187.685 249.576,188.315 249.576,188.700 249.476 C 189.085 249.375,188.770 249.293,188.000 249.293 C 187.230 249.293,186.915 249.375,187.300 249.476 M210.100 249.476 C 210.485 249.576,211.115 249.576,211.500 249.476 C 211.885 249.375,211.570 249.293,210.800 249.293 C 210.030 249.293,209.715 249.375,210.100 249.476 M196.518 249.898 C 198.233 249.973,200.933 249.972,202.518 249.897 C 204.103 249.821,202.700 249.759,199.400 249.760 C 196.100 249.761,194.803 249.822,196.518 249.898 " stroke="none" fill="#a7b3dc" fill-rule="evenodd"></path></g></svg>