<svg id="svg" version="1.1" xmlns="http://www.w3.org/2000/svg" xmlns:xlink="http://www.w3.org/1999/xlink" width="400" height="400" viewBox="0, 0, 400,400"><g id="svgg"><path id="path0" d="M187.695 43.995 C 144.177 48.394,106.995 67.347,80.926 98.420 C 77.686 102.281,77.694 102.203,80.684 100.974 L 83.008 100.019 103.014 100.009 C 130.625 99.996,130.029 99.726,134.749 114.418 C 137.362 122.551,137.718 123.219,139.993 124.252 C 141.867 125.103,256.428 125.434,259.441 124.598 C 262.030 123.878,262.992 122.244,265.585 114.156 C 268.638 104.635,270.350 102.260,275.364 100.595 C 278.367 99.597,317.969 99.876,319.861 100.908 C 326.963 104.783,305.105 83.153,292.383 73.718 C 271.790 58.445,247.047 48.511,220.535 44.873 C 214.897 44.100,192.567 43.502,187.695 43.995 M69.817 113.163 C 59.830 128.211,52.908 143.756,48.410 161.241 C 46.450 168.862,46.481 169.436,48.602 164.734 C 51.658 157.957,55.893 151.920,61.076 146.954 L 63.643 144.494 68.536 126.475 C 71.228 116.565,73.364 108.390,73.283 108.309 C 73.202 108.228,71.643 110.413,69.817 113.163 M327.346 109.551 C 327.345 109.755,329.458 117.699,332.042 127.204 L 336.740 144.487 339.316 146.951 C 344.618 152.022,349.137 158.712,352.193 166.016 C 355.737 174.486,349.315 152.083,345.194 141.602 C 341.090 131.165,327.362 106.511,327.346 109.551 M43.892 203.934 C 44.030 217.119,44.231 217.876,45.906 211.525 L 47.134 206.871 46.257 204.280 C 45.775 202.856,45.263 201.002,45.119 200.161 C 43.743 192.142,43.768 192.067,43.892 203.934 M355.946 194.810 C 355.810 196.779,354.415 203.544,353.786 205.290 C 353.266 206.732,354.659 214.555,355.603 215.499 C 355.944 215.840,356.300 205.958,356.168 199.805 C 356.094 196.367,355.994 194.120,355.946 194.810 M184.059 259.553 C 170.757 287.277,133.397 288.871,117.454 262.395 L 116.171 260.265 104.287 277.246 C 91.483 295.542,89.534 297.843,84.222 300.941 L 81.604 302.468 83.087 304.056 C 97.993 320.007,110.405 329.648,127.930 338.885 C 160.237 355.915,199.941 360.740,236.719 352.106 C 265.934 345.248,294.138 328.711,314.750 306.352 L 318.367 302.429 315.469 300.623 C 310.619 297.600,308.234 294.730,295.763 276.907 L 284.114 260.259 282.414 263.143 C 267.165 289.010,227.562 286.450,215.827 258.838 L 214.727 256.250 200.185 256.250 L 185.644 256.250 184.059 259.553 " stroke="none" fill="#d9ad52" fill-rule="evenodd"></path><path id="path1" d="M82.087 100.604 C 77.500 101.860,74.183 104.788,73.580 108.114 C 73.482 108.657,71.239 117.050,68.597 126.765 L 63.794 144.427 60.315 147.936 C 54.870 153.428,49.824 161.197,47.431 167.773 C 47.040 168.848,46.577 169.826,46.401 169.948 C 46.226 170.070,45.607 172.180,45.025 174.636 C 43.068 182.893,43.598 194.858,46.318 203.825 L 47.301 207.063 46.100 211.637 C 45.440 214.153,44.732 216.563,44.527 216.992 C 43.518 219.102,31.952 264.417,31.587 267.692 C 29.680 284.769,40.222 301.148,55.664 305.101 C 63.452 307.095,78.225 305.658,81.334 302.604 C 81.610 302.332,82.803 301.558,83.984 300.884 C 89.485 297.744,90.609 296.409,104.667 276.315 L 116.169 259.873 118.338 263.389 C 133.990 288.756,171.845 286.292,184.066 259.110 L 185.352 256.251 200.059 256.250 L 214.766 256.250 216.528 259.863 C 226.507 280.331,251.867 287.419,270.755 275.020 C 275.566 271.861,280.981 265.956,283.042 261.621 C 284.026 259.552,283.210 258.589,295.955 276.855 C 312.227 300.178,315.944 303.428,328.927 305.696 C 352.001 309.727,370.568 291.785,368.587 267.373 C 368.348 264.429,356.570 218.075,355.488 215.820 C 355.281 215.391,354.645 213.223,354.074 211.004 L 353.036 206.969 353.845 204.363 C 359.964 184.660,354.482 162.448,339.867 147.734 L 336.556 144.401 331.758 126.790 C 329.119 117.104,326.958 108.819,326.957 108.377 C 326.946 105.831,323.342 102.301,319.413 100.987 L 316.365 99.967 296.366 100.081 L 276.367 100.195 274.185 101.219 C 269.726 103.310,268.867 104.650,265.633 114.561 C 263.135 122.215,262.526 123.356,260.401 124.365 C 258.710 125.167,141.663 125.359,140.111 124.562 C 137.696 123.321,137.140 122.287,134.534 114.189 C 131.624 105.147,130.481 103.366,126.251 101.289 L 124.023 100.195 104.102 100.113 C 87.616 100.046,83.819 100.130,82.087 100.604 M106.715 154.372 C 109.253 156.310,109.375 156.942,109.375 168.125 L 109.375 178.125 119.375 178.125 C 133.617 178.125,134.180 178.481,134.180 187.500 C 134.180 196.519,133.617 196.875,119.375 196.875 L 109.375 196.875 109.375 206.875 C 109.375 221.117,109.019 221.680,100.000 221.680 C 90.981 221.680,90.625 221.117,90.625 206.875 L 90.625 196.875 80.625 196.875 C 66.383 196.875,65.820 196.519,65.820 187.500 C 65.820 178.484,66.386 178.125,80.608 178.125 L 90.589 178.125 90.705 167.645 L 90.820 157.164 91.867 155.793 C 94.160 152.788,103.474 151.898,106.715 154.372 M304.256 154.282 C 310.833 157.666,310.857 167.340,304.297 170.692 C 298.057 173.881,291.016 169.537,291.016 162.500 C 291.016 155.500,298.089 151.109,304.256 154.282 M233.999 157.129 C 238.478 159.387,238.478 165.613,233.999 167.871 L 232.256 168.750 199.879 168.750 C 163.844 168.750,165.892 168.901,163.747 166.089 C 162.247 164.122,162.245 160.881,163.742 158.918 C 165.883 156.111,163.744 156.269,199.820 156.259 L 232.256 156.250 233.999 157.129 M279.991 179.557 C 284.019 182.047,285.523 187.293,283.434 191.563 C 279.089 200.445,265.849 197.386,265.849 187.500 C 265.849 180.159,273.770 175.710,279.991 179.557 M329.991 179.557 C 337.323 184.090,334.793 195.731,326.257 196.742 C 317.075 197.830,312.033 186.340,319.091 180.415 C 322.224 177.785,326.571 177.442,329.991 179.557 M304.929 204.518 C 312.390 209.132,309.712 221.069,301.054 221.787 C 295.534 222.245,290.625 217.873,290.625 212.500 C 290.625 205.392,298.886 200.782,304.929 204.518 " stroke="none" fill="#3f3f3f" fill-rule="evenodd"></path><path id="path2" d="M94.211 153.766 C 93.497 154.126,92.443 155.038,91.867 155.793 L 90.820 157.164 90.705 167.645 L 90.589 178.125 80.608 178.125 C 66.386 178.125,65.820 178.484,65.820 187.500 C 65.820 196.519,66.383 196.875,80.625 196.875 L 90.625 196.875 90.625 206.875 C 90.625 221.117,90.981 221.680,100.000 221.680 C 109.019 221.680,109.375 221.117,109.375 206.875 L 109.375 196.875 119.375 196.875 C 133.617 196.875,134.180 196.519,134.180 187.500 C 134.180 178.481,133.617 178.125,119.375 178.125 L 109.375 178.125 109.375 168.125 C 109.375 156.942,109.253 156.310,106.715 154.372 C 104.928 153.007,96.519 152.600,94.211 153.766 M166.086 156.907 C 161.467 159.183,161.506 165.905,166.150 168.109 C 167.369 168.687,170.673 168.750,199.879 168.750 L 232.256 168.750 233.999 167.871 C 238.478 165.613,238.478 159.387,233.999 157.129 L 232.256 156.250 199.820 156.259 C 170.587 156.267,167.255 156.331,166.086 156.907 M271.484 178.913 C 267.726 180.667,265.849 183.527,265.849 187.500 C 265.849 197.386,279.089 200.445,283.434 191.563 C 287.170 183.928,279.082 175.367,271.484 178.913 M223.421 270.020 C 224.379 271.040,225.214 271.875,225.277 271.875 C 225.570 271.875,225.260 271.524,223.535 269.906 L 221.680 268.164 223.421 270.020 " stroke="none" fill="#646363" fill-rule="evenodd"></path><path id="path3" d="M297.266 153.706 C 288.661 156.471,288.876 168.789,297.573 171.334 C 303.513 173.073,309.153 168.770,309.153 162.500 C 309.153 156.179,303.223 151.792,297.266 153.706 M297.172 203.658 C 290.872 206.006,288.788 213.393,292.993 218.468 C 298.376 224.965,309.375 220.958,309.375 212.500 C 309.375 206.457,302.678 201.604,297.172 203.658 " stroke="none" fill="#4c8c9c" fill-rule="evenodd"></path><path id="path4" d="M322.654 178.490 C 312.736 181.507,313.920 195.533,324.194 196.750 C 332.847 197.774,337.753 186.867,331.411 180.707 C 329.204 178.565,325.496 177.625,322.654 178.490 M176.563 270.117 C 175.614 271.084,174.925 271.875,175.033 271.875 C 175.140 271.875,176.004 271.084,176.953 270.117 C 177.902 269.150,178.590 268.359,178.483 268.359 C 178.376 268.359,177.511 269.150,176.563 270.117 " stroke="none" fill="#bb5453" fill-rule="evenodd"></path></g></svg>